<?xml version="1.0" encoding="UTF-8"?>
<svg width="240px" height="268px" viewBox="0 0 240 268" version="1.1" xmlns="http://www.w3.org/2000/svg" xmlns:xlink="http://www.w3.org/1999/xlink">
    <!-- Generator: Sketch 51.1 (57501) - http://www.bohemiancoding.com/sketch -->
    <title>Slice</title>
    <desc>Created with Sketch.</desc>
    <defs></defs>
    <g id="Page-1" stroke="none" stroke-width="1" fill="none" fill-rule="evenodd">
        <path d="M210.095116,51.047053 L199.27817,69.757158 L117.778345,69.757158 C115.016921,69.757158 112.778345,71.995734 112.778345,74.757158 L112.778345,101.117871 C112.778345,103.879295 115.016921,106.117871 117.778345,106.117871 L180.272271,106.117871 L167.679162,128 L115.023526,128 C113.353679,128 112,129.353679 112,131.023526 C112,132.693374 113.353679,134.047053 115.023526,134.047053 L164.199098,134.047053 L153.867224,152 L115.023526,152 C113.353679,152 112,153.353679 112,155.023526 C112,156.693374 113.353679,158.047053 115.023526,158.047053 L150.38716,158.047053 L140.171241,175.798512 L117.778345,175.798512 C115.016921,175.798512 112.778345,178.037089 112.778345,180.798512 L112.778345,221.144399 L87.229076,265.119325 C85.841841,267.50701 82.781663,268.318034 80.393978,266.930798 C79.643915,266.495014 79.020133,265.871584 78.583925,265.121767 L54.356268,223.47575 C53.467961,221.948799 53,220.213783 53,218.447241 L53,18.903799 C53,9.000322 61.000207,0.957128 70.903542,0.904058 L239.607148,0 L226.888202,22 L115.023526,22 C113.353679,22 112,23.3536789 112,25.0235265 C112,26.6933741 113.353679,28.047053 115.023526,28.047053 L223.392196,28.047053 L213.591122,45 L115.023526,45 C113.353679,45 112,46.3536789 112,48.0235265 C112,49.6933741 113.353679,51.047053 115.023526,51.047053 L210.095116,51.047053 Z M70.5,228 L79.877674,245.430339 C80.979464,245.810113 81.91662,246 82.689143,246 C83.461665,246 84.625092,245.810113 86.179422,245.430339 L94.878286,228 C89.490409,228.499547 85.427361,228.749321 82.689143,228.749321 C79.950924,228.749321 75.887877,228.499547 70.5,228 Z" id="Combined-Shape" fill="#FFFFFF" fill-rule="nonzero"></path>
    </g>
</svg>