<?xml version="1.0" encoding="UTF-8" standalone="no"?>
<svg
   xmlns:dc="http://purl.org/dc/elements/1.1/"
   xmlns:cc="http://creativecommons.org/ns#"
   xmlns:rdf="http://www.w3.org/1999/02/22-rdf-syntax-ns#"
   xmlns:svg="http://www.w3.org/2000/svg"
   xmlns="http://www.w3.org/2000/svg"
   xmlns:sodipodi="http://sodipodi.sourceforge.net/DTD/sodipodi-0.dtd"
   xmlns:inkscape="http://www.inkscape.org/namespaces/inkscape"
   viewBox="0 0 5461.4785 3000.0449"
   height="3000.0449"
   width="5461.4785"
   xml:space="preserve"
   id="svg2"
   version="1.1"
   sodipodi:docname="fastai.svg"
   inkscape:version="0.92.3 (unknown)"><sodipodi:namedview
     pagecolor="#ffffff"
     bordercolor="#666666"
     borderopacity="1"
     objecttolerance="10"
     gridtolerance="10"
     guidetolerance="10"
     inkscape:pageopacity="0"
     inkscape:pageshadow="2"
     inkscape:window-width="1920"
     inkscape:window-height="1045"
     id="namedview400"
     showgrid="false"
     fit-margin-top="0"
     fit-margin-left="0"
     fit-margin-right="0"
     fit-margin-bottom="0"
     inkscape:zoom="0.20802499"
     inkscape:cx="3137.8831"
     inkscape:cy="1738.2359"
     inkscape:window-x="0"
     inkscape:window-y="0"
     inkscape:window-maximized="1"
     inkscape:current-layer="svg2" /><metadata
     id="metadata8"><rdf:RDF><cc:Work
         rdf:about=""><dc:format>image/svg+xml</dc:format><dc:type
           rdf:resource="http://purl.org/dc/dcmitype/StillImage" /><dc:title></dc:title></cc:Work></rdf:RDF></metadata><defs
     id="defs6"><clipPath
       id="clipPath58"
       clipPathUnits="userSpaceOnUse"><path
         id="path56"
         d="M 0,1190.551 H 4762.205 V 0 H 0 Z"
         inkscape:connector-curvature="0" /></clipPath><clipPath
       id="clipPath166"
       clipPathUnits="userSpaceOnUse"><path
         id="path164"
         d="m 3449.81,580.643 h 220.02 V 550.24 h -220.02 z"
         inkscape:connector-curvature="0" /></clipPath><clipPath
       id="clipPath670"
       clipPathUnits="userSpaceOnUse"><path
         id="path668"
         d="m 3875.45,454.07 h 97.77 v -39.564 h -97.77 z"
         inkscape:connector-curvature="0" /></clipPath><clipPath
       id="clipPath674"
       clipPathUnits="userSpaceOnUse"><path
         id="path672"
         d="m 3875.45,454.07 h 97.77 v -39.564 h -97.77 z"
         inkscape:connector-curvature="0" /></clipPath><clipPath
       id="clipPath726"
       clipPathUnits="userSpaceOnUse"><path
         id="path724"
         d="m 2898.21,710.942 h 42.36 V 481.258 h -42.36 z"
         inkscape:connector-curvature="0" /></clipPath><clipPath
       id="clipPath742"
       clipPathUnits="userSpaceOnUse"><path
         id="path740"
         d="m 3305.88,506.807 h 29.33 V 333.586 h -29.33 z"
         inkscape:connector-curvature="0" /></clipPath><clipPath
       id="clipPath758"
       clipPathUnits="userSpaceOnUse"><path
         id="path756"
         d="M 397.155,587.573 H 1347.42 V 464.272 H 397.155 Z"
         inkscape:connector-curvature="0" /></clipPath><clipPath
       id="clipPath762"
       clipPathUnits="userSpaceOnUse"><path
         id="path760"
         d="M 397.155,587.573 H 1347.42 V 464.272 H 397.155 Z"
         inkscape:connector-curvature="0" /></clipPath><clipPath
       id="clipPath786"
       clipPathUnits="userSpaceOnUse"><path
         id="path784"
         d="M 397.155,779.932 H 1196.43 V 586.927 H 397.155 Z"
         inkscape:connector-curvature="0" /></clipPath><clipPath
       id="clipPath790"
       clipPathUnits="userSpaceOnUse"><path
         id="path788"
         d="M 397.155,779.932 H 1196.43 V 586.927 H 397.155 Z"
         inkscape:connector-curvature="0" /></clipPath><linearGradient
       gradientUnits="userSpaceOnUse"
       gradientTransform="scale(1.1601284,0.86197352)"
       x1="244.07607"
       y1="-23.552706"
       x2="398.80334"
       y2="642.95001"
       id="linearGradient-1-3"><stop
         stop-color="#F5F7FA"
         offset="0%"
         id="stop6-6" /><stop
         stop-color="#E3E9F1"
         offset="100%"
         id="stop8-7" /></linearGradient><linearGradient
       x1="0"
       y1="55.007366"
       x2="1248.8218"
       y2="1108.6812"
       id="linearGradient-1"
       gradientTransform="scale(1.0359709,0.96527809)"
       gradientUnits="userSpaceOnUse"><stop
         stop-color="#F5F7FA"
         offset="0%"
         id="stop6" /><stop
         stop-color="#C3CFE2"
         offset="100%"
         id="stop8" /></linearGradient></defs><g
     id="Page-1"
     style="opacity:0.79852588;fill:none;fill-rule:evenodd;stroke:none;stroke-width:1"
     transform="matrix(2.3022667,0,0,2.1509525,3525.1095,784.9532)"><path
       d="M 161.19489,430.85547 H 583.47818 V 592.02336 H 161.18208 L 161.18182,751 H 0 V 430.85547 c 0,-0.001 0,-0.003 0,-0.004 C 0,192.89878 191.23343,0 427.13182,0 c 0.5375,0 1.07478,0.00100149 1.61182,0.00300271 V 0.00278791 81.659788 163.31679 H 591 V 0 H 428.74364 V 81.659788 163.32986 C 281.62135,164.76245 162.62761,283.74591 161.19489,430.85547 Z M 725.5,161 C 681.04108,161 645,124.95892 645,80.5 645,36.041078 681.04108,0 725.5,0 769.95892,0 806,36.041078 806,80.5 806,124.95892 769.95892,161 725.5,161 Z m 0,-51.52 c 14.81964,0 26.83333,-12.013693 26.83333,-26.833333 0,-14.819641 -12.01369,-26.833334 -26.83333,-26.833334 -14.81964,0 -26.83333,12.013693 -26.83333,26.833334 0,14.81964 12.01369,26.833333 26.83333,26.833333 z"
       id="Combined-Shape-Copy-9"
       inkscape:connector-curvature="0"
       style="fill:url(#linearGradient-1)" /></g><g
     style="fill:none;fill-rule:evenodd;stroke:none;stroke-width:1"
     id="Page-1-5"
     transform="matrix(4.0021706,0,0,3.7450455,6.8788821,1311.0291)"><path
       style="fill:url(#linearGradient-1-3)"
       inkscape:connector-curvature="0"
       d="M 441,0 H 607 V 450.51799 H 441 Z M 165.42857,204.11477 V 451 H 0 V 224.75457 c 8.7393981e-4,-0.36704 0,-0.73429 0,-1.10174 C 0,100.13278 98.753192,0 220.57143,0 H 386 V 451 H 220.57143 V 204.11477 Z"
       id="Combined-Shape-Copy-6" /></g><rect
     id="rect461"
     width="2119.9375"
     height="485.51859"
     x="832.6333"
     y="2652.2664"
     style="fill:#ffffff;stroke-width:1.90426672" /><g
     transform="matrix(1.3333333,0,0,-1.3333333,-450.65532,3129.623)"
     id="g10"><g
       transform="translate(1796.687,805.3051)"
       id="g12"><path
         id="path14"
         style="fill:#f98585;fill-opacity:1;fill-rule:nonzero;stroke:none"
         d="m 0,0 -2.865,8.201 21.231,7.416 2.864,-8.2 z"
         inkscape:connector-curvature="0" /></g><g
       transform="translate(1821.8052,780.851)"
       id="g16"><path
         id="path18"
         style="fill:#f98585;fill-opacity:1;fill-rule:nonzero;stroke:none"
         d="m 0,0 -6.833,5.365 14.052,17.9 6.833,-5.366 z"
         inkscape:connector-curvature="0" /></g><path
       id="path20"
       style="fill:#f98585;fill-opacity:1;fill-rule:nonzero;stroke:none"
       d="m 1855.818,763.062 h -8.687 v 21.924 h 8.687 z"
       inkscape:connector-curvature="0" /><path
       id="path22"
       style="fill:#f98585;fill-opacity:1;fill-rule:nonzero;stroke:none"
       d="M 3354.256,689.226 H 2979.94 v 8.687 h 374.316 z"
       inkscape:connector-curvature="0" /><path
       id="path24"
       style="fill:#f98585;fill-opacity:1;fill-rule:nonzero;stroke:none"
       d="m 3271.556,663.166 h -317.677 v 8.687 h 317.677 z"
       inkscape:connector-curvature="0" /><path
       id="path26"
       style="fill:#f98585;fill-opacity:1;fill-rule:nonzero;stroke:none"
       d="m 3271.556,642.268 h -317.677 v 8.687 h 317.677 z"
       inkscape:connector-curvature="0" /><g
       transform="translate(3041.3379,816.0668)"
       id="g28"><path
         id="path30"
         style="fill:#d4d2d3;fill-opacity:1;fill-rule:evenodd;stroke:none"
         d="M 0,0 -91.905,126.497 -56.767,152.026 35.139,25.529 Z"
         inkscape:connector-curvature="0" /></g><g
       transform="translate(2961.5693,940.643)"
       id="g32"><path
         id="path34"
         style="fill:#262626;fill-opacity:1;fill-rule:nonzero;stroke:none"
         d="m 0,0 81.691,-112.442 21.08,15.316 L 21.08,15.318 Z M 77.849,-136.708 -24.271,3.843 24.923,39.584 127.041,-100.969 Z"
         inkscape:connector-curvature="0" /></g><g
       transform="translate(3143.2363,989.2241)"
       id="g36"><path
         id="path38"
         style="fill:#d4d2d3;fill-opacity:1;fill-rule:evenodd;stroke:none"
         d="M 0,0 -5.104,28.78 -184.97,2.421 -174.372,-43.48 Z"
         inkscape:connector-curvature="0" /></g><g
       transform="translate(2966.2051,986.2245)"
       id="g40"><path
         id="path42"
         style="fill:#262626;fill-opacity:1;fill-rule:nonzero;stroke:none"
         d="M 0,0 7.516,-32.556 169.554,7.851 166.615,24.416 Z M -2.197,-48.406 -15.88,10.841 177.235,39.143 184.51,-1.85 Z"
         inkscape:connector-curvature="0" /></g><g
       transform="translate(3146.7676,1018.0995)"
       id="g44"><path
         id="path46"
         style="fill:#d4d2d3;fill-opacity:1;fill-rule:evenodd;stroke:none"
         d="M 0,0 -26.012,-19.693 76.793,-142.58 94.589,-131.052 Z"
         inkscape:connector-curvature="0" /></g><g
       transform="translate(3127.0137,997.6957)"
       id="g48"><path
         id="path50"
         style="fill:#262626;fill-opacity:1;fill-rule:nonzero;stroke:none"
         d="m 0,0 97.414,-116.442 10.732,6.956 L 18.832,14.258 Z M 95.684,-127.911 -12.513,1.421 l 33.186,25.128 99.866,-138.36 z"
         inkscape:connector-curvature="0" /></g><g
       id="g52"><g
         clip-path="url(#clipPath58)"
         id="g54"><g
           transform="translate(3045.8818,897.704)"
           id="g60"><path
             id="path62"
             style="fill:#ffffff;fill-opacity:1;fill-rule:evenodd;stroke:none"
             d="m 0,0 c 27.585,0 49.948,-22.362 49.948,-49.948 0,-27.585 -22.363,-49.948 -49.948,-49.948 -27.586,0 -49.948,22.363 -49.948,49.948 C -49.948,-22.362 -27.586,0 0,0"
             inkscape:connector-curvature="0" /></g><g
           transform="translate(3045.8818,891.1894)"
           id="g64"><path
             id="path66"
             style="fill:#262626;fill-opacity:1;fill-rule:nonzero;stroke:none"
             d="m 0,0 c -23.947,0 -43.433,-19.483 -43.433,-43.433 0,-23.95 19.486,-43.433 43.433,-43.433 23.947,0 43.433,19.483 43.433,43.433 C 43.433,-19.483 23.947,0 0,0 m 0,-99.896 c -31.133,0 -56.463,25.328 -56.463,56.463 0,31.135 25.33,56.463 56.463,56.463 31.133,0 56.463,-25.328 56.463,-56.463 0,-31.135 -25.33,-56.463 -56.463,-56.463"
             inkscape:connector-curvature="0" /></g><g
           transform="translate(3045.8818,873.8159)"
           id="g68"><path
             id="path70"
             style="fill:#a9abaf;fill-opacity:1;fill-rule:evenodd;stroke:none"
             d="m 0,0 c 13.193,0 23.888,-10.695 23.888,-23.888 0,-13.193 -10.695,-23.888 -23.888,-23.888 -13.193,0 -23.889,10.695 -23.889,23.888 C -23.889,-10.695 -13.193,0 0,0"
             inkscape:connector-curvature="0" /></g><g
           transform="translate(3045.8818,867.3012)"
           id="g72"><path
             id="path74"
             style="fill:#262626;fill-opacity:1;fill-rule:nonzero;stroke:none"
             d="m 0,0 c -9.582,0 -17.373,-7.794 -17.373,-17.373 0,-9.58 7.791,-17.374 17.373,-17.374 9.581,0 17.373,7.794 17.373,17.374 C 17.373,-7.794 9.581,0 0,0 m 0,-47.776 c -16.763,0 -30.403,13.638 -30.403,30.403 0,16.764 13.64,30.403 30.403,30.403 16.763,0 30.403,-13.639 30.403,-30.403 0,-16.765 -13.64,-30.403 -30.403,-30.403"
             inkscape:connector-curvature="0" /></g><g
           transform="translate(2952.501,847.7563)"
           id="g76"><path
             id="path78"
             style="fill:#d4d2d3;fill-opacity:1;fill-rule:evenodd;stroke:none"
             d="m 0,0 h 165.045 c 2.399,0 4.344,-1.945 4.344,-4.343 v -125.956 c 0,-2.399 -1.945,-4.344 -4.344,-4.344 H 0 c -2.399,0 -4.344,1.945 -4.344,4.344 V -4.343 C -4.344,-1.945 -2.399,0 0,0"
             inkscape:connector-curvature="0" /></g><path
           id="path80"
           style="fill:#262626;fill-opacity:1;fill-rule:nonzero;stroke:none"
           d="m 2959.016,723.972 h 152.016 v 112.926 h -152.016 z m 158.53,-21.716 h -165.045 c -8.382,0 -15.202,6.82 -15.202,15.201 v 125.956 c 0,8.381 6.82,15.202 15.202,15.202 h 165.045 c 8.382,0 15.202,-6.821 15.202,-15.202 V 717.457 c 0,-8.381 -6.82,-15.201 -15.202,-15.201"
           inkscape:connector-curvature="0" /><g
           transform="translate(3231.6826,846.9448)"
           id="g82"><path
             id="path84"
             style="fill:#a9abaf;fill-opacity:1;fill-rule:evenodd;stroke:none"
             d="M 0,0 35.139,25.529 45.35,11.474 10.212,-14.055 Z"
             inkscape:connector-curvature="0" /></g><g
           transform="translate(3222.167,854.8686)"
           id="g86"><path
             id="path88"
             style="fill:#d4d2d3;fill-opacity:1;fill-rule:evenodd;stroke:none"
             d="M 0,0 38.651,28.082 46.311,17.541 7.658,-10.542 Z"
             inkscape:connector-curvature="0" /></g><g
           transform="translate(3228.2324,853.9086)"
           id="g90"><path
             id="path92"
             style="fill:#262626;fill-opacity:1;fill-rule:nonzero;stroke:none"
             d="m 0,0 2.554,-3.514 31.624,22.976 -2.553,3.512 z M 0.637,-15.649 -12.131,1.921 33.551,35.109 46.309,17.541 Z"
             inkscape:connector-curvature="0" /></g><g
           transform="translate(2704.9326,782.6069)"
           id="g94"><path
             id="path96"
             style="fill:#b7d687;fill-opacity:1;fill-rule:evenodd;stroke:none"
             d="m 0,0 h 460.39 c 2.399,0 4.343,-1.945 4.343,-4.343 v -356.151 c 0,-2.399 -1.944,-4.343 -4.343,-4.343 H 0 c -2.398,0 -4.343,1.944 -4.343,4.343 V -4.343 C -4.343,-1.945 -2.398,0 0,0"
             inkscape:connector-curvature="0" /></g><path
           id="path98"
           style="fill:#262626;fill-opacity:1;fill-rule:nonzero;stroke:none"
           d="m 2711.447,428.628 h 447.36 v 343.12 h -447.36 z m 453.875,-21.716 h -460.389 c -8.381,0 -15.202,6.82 -15.202,15.201 v 356.151 c 0,8.381 6.821,15.201 15.202,15.201 h 460.389 c 8.382,0 15.202,-6.82 15.202,-15.201 V 422.113 c 0,-8.381 -6.82,-15.201 -15.202,-15.201"
           inkscape:connector-curvature="0" /><g
           transform="translate(3026.3369,730.4872)"
           id="g100"><path
             id="path102"
             style="fill:#ffffff;fill-opacity:1;fill-rule:evenodd;stroke:none"
             d="m 0,0 h 91.209 c 7.196,0 13.03,-5.834 13.03,-13.03 v -56.463 c 0,-7.196 -5.834,-13.03 -13.03,-13.03 H 0 c -7.196,0 -13.03,5.834 -13.03,13.03 V -13.03 C -13.03,-5.834 -7.196,0 0,0"
             inkscape:connector-curvature="0" /></g><g
           transform="translate(3026.3369,728.3154)"
           id="g104"><path
             id="path106"
             style="fill:#262626;fill-opacity:1;fill-rule:nonzero;stroke:none"
             d="m 0,0 c -5.989,0 -10.858,-4.871 -10.858,-10.858 v -56.463 c 0,-5.987 4.869,-10.858 10.858,-10.858 h 91.209 c 5.989,0 10.858,4.871 10.858,10.858 v 56.463 C 102.067,-4.871 97.198,0 91.209,0 Z M 91.209,-82.522 H 0 c -8.381,0 -15.201,6.82 -15.201,15.201 v 56.463 c 0,8.381 6.82,15.201 15.201,15.201 h 91.209 c 8.382,0 15.202,-6.82 15.202,-15.201 v -56.463 c 0,-8.381 -6.82,-15.201 -15.202,-15.201"
             inkscape:connector-curvature="0" /></g><path
           id="path108"
           style="fill:#ffffff;fill-opacity:1;fill-rule:evenodd;stroke:none"
           d="m 2856.948,730.487 h 13.03 V 582.815 h -13.03 z"
           inkscape:connector-curvature="0" /><path
           id="path110"
           style="fill:#262626;fill-opacity:1;fill-rule:nonzero;stroke:none"
           d="m 2859.12,584.987 h 8.687 v 143.329 h -8.687 z m 13.029,-4.344 h -17.373 v 152.016 h 17.373 z"
           inkscape:connector-curvature="0" /><g
           transform="translate(3564.3809,699.9799)"
           id="g112"><path
             id="path114"
             style="fill:#488fc2;fill-opacity:1;fill-rule:evenodd;stroke:none"
             d="m 0,0 -127.207,-107.33 c -1.833,-1.547 -2.065,-4.287 -0.519,-6.121 0.826,-0.978 2.04,-1.542 3.32,-1.542 h 264.403 c 2.399,0 4.344,1.944 4.344,4.343 0,1.336 -0.615,2.597 -1.667,3.421 L 5.477,0.101 C 3.857,1.368 1.571,1.326 0,0"
             inkscape:connector-curvature="0" /></g><g
           transform="translate(3569.9746,693.3359)"
           id="g116"><path
             id="path118"
             style="fill:#262626;fill-opacity:1;fill-rule:nonzero;stroke:none"
             d="M 0,0 -0.009,-0.008 C -0.004,-0.004 0,-0.002 0,0 M -118.117,-99.663 H 121.804 L -2.689,-2.271 Z m 252.522,-17.373 h -264.403 c -3.856,0 -7.486,1.691 -9.967,4.634 -2.235,2.653 -3.313,6.027 -3.02,9.497 0.297,3.467 1.922,6.612 4.581,8.858 L -11.189,13.289 c 4.691,3.951 11.592,4.082 16.427,0.294 L 142.434,-93.744 c 3.177,-2.485 5.001,-6.226 5.001,-10.262 0,-7.185 -5.845,-13.03 -13.03,-13.03"
             inkscape:connector-curvature="0" /></g><g
           transform="translate(3552.2197,335.4369)"
           id="g120"><path
             id="path122"
             style="fill:#488fc2;fill-opacity:1;fill-rule:evenodd;stroke:none"
             d="m 0,0 -121.005,243.272 c -1.068,2.148 -0.193,4.754 1.954,5.823 0.602,0.299 1.264,0.455 1.935,0.455 h 236.873 c 2.398,0 4.343,-1.945 4.343,-4.344 V -4.533 L 3.813,-2.408 C 2.191,-2.38 0.722,-1.451 0,0"
             inkscape:connector-curvature="0" /></g><g
           transform="translate(3558.8242,341.6684)"
           id="g124"><path
             id="path126"
             style="fill:#262626;fill-opacity:1;fill-rule:nonzero;stroke:none"
             d="M 0,0 108.807,-1.921 V 234.632 H -116.71 Z m 1.175,-2.362 v 0 L 1.17,-2.358 Z M 126.18,-19.604 -2.944,-17.326 c -4.886,0.089 -9.268,2.858 -11.44,7.227 L -135.39,233.173 c -3.197,6.428 -0.568,14.264 5.863,17.466 1.802,0.895 3.804,1.366 5.806,1.366 H 113.15 c 7.185,0 13.03,-5.845 13.03,-13.03 z"
             inkscape:connector-curvature="0" /></g><g
           transform="translate(3567.0781,702.2558)"
           id="g128"><path
             id="path130"
             style="fill:#f7e113;fill-opacity:1;fill-rule:evenodd;stroke:none"
             d="m 0,0 -98.83,-121.613 h 38.539 z"
             inkscape:connector-curvature="0" /></g><g
           transform="translate(3591.6465,576.3002)"
           id="g132"><path
             id="path134"
             style="fill:#f7e113;fill-opacity:1;fill-rule:evenodd;stroke:none"
             d="M 0,0 -41.942,4.343 V -256.255 L 0,-245.397 Z"
             inkscape:connector-curvature="0" /></g><g
           transform="translate(3648.1094,580.643)"
           id="g136"><path
             id="path138"
             style="fill:#f7e113;fill-opacity:1;fill-rule:evenodd;stroke:none"
             d="M 0,0 -28.912,4.344 V -256.255 L 0,-245.397 Z"
             inkscape:connector-curvature="0" /></g><g
           transform="translate(3517.8105,580.643)"
           id="g140"><path
             id="path142"
             style="fill:#f7e113;fill-opacity:1;fill-rule:evenodd;stroke:none"
             d="M 0,0 -41.942,4.344 V -256.255 L 0,-245.397 Z"
             inkscape:connector-curvature="0" /></g><g
           transform="translate(3566.9785,706.5991)"
           id="g144"><path
             id="path146"
             style="fill:#f7e113;fill-opacity:1;fill-rule:evenodd;stroke:none"
             d="M 0,0 -17.274,-121.612 H 24.668 Z"
             inkscape:connector-curvature="0" /></g><g
           transform="translate(3562.7344,702.2558)"
           id="g148"><path
             id="path150"
             style="fill:#f7e113;fill-opacity:1;fill-rule:evenodd;stroke:none"
             d="m 0,0 71.871,-118.259 37.371,-3.354 z"
             inkscape:connector-curvature="0" /></g><g
           transform="translate(3569.9746,693.3359)"
           id="g152"><path
             id="path154"
             style="fill:#262626;fill-opacity:1;fill-rule:nonzero;stroke:none"
             d="M 0,0 -0.009,-0.008 C -0.004,-0.004 0,-0.002 0,0 M -118.117,-99.663 H 121.804 L -2.689,-2.271 Z m 252.522,-17.373 h -264.403 c -3.843,0 -7.469,1.684 -9.954,4.619 -2.248,2.668 -3.326,6.042 -3.033,9.512 0.297,3.467 1.922,6.612 4.581,8.858 L -11.189,13.289 c 4.691,3.951 11.592,4.082 16.427,0.294 L 142.434,-93.744 c 3.177,-2.485 5.001,-6.226 5.001,-10.262 0,-7.185 -5.845,-13.03 -13.03,-13.03"
             inkscape:connector-curvature="0" /></g><g
           transform="translate(3558.8242,341.6684)"
           id="g156"><path
             id="path158"
             style="fill:#262626;fill-opacity:1;fill-rule:nonzero;stroke:none"
             d="M 0,0 108.812,-1.921 V 234.632 H -116.71 Z m 1.175,-2.362 v 0 L 1.17,-2.358 Z m 125.01,-17.242 -129.129,2.278 c -4.886,0.089 -9.268,2.858 -11.44,7.227 L -135.39,233.173 c -3.197,6.428 -0.568,14.264 5.863,17.466 1.802,0.895 3.804,1.366 5.806,1.366 h 236.875 c 7.186,0 13.031,-5.845 13.031,-13.03 z"
             inkscape:connector-curvature="0" /></g><g
           id="g160"><g
             id="g162" /><g
             id="g174"><g
               style="opacity:0.25"
               id="g172"
               clip-path="url(#clipPath166)"><g
                 id="g170"
                 transform="translate(3669.8262,580.1362)"><path
                   id="path168"
                   style="fill:#262626;fill-opacity:1;fill-rule:evenodd;stroke:none"
                   d="M 0,0 -220.018,0.507 V -29.896 L 0,-28.629 Z"
                   inkscape:connector-curvature="0" /></g></g></g></g><g
           transform="translate(1650.7197,601.8364)"
           id="g176"><path
             id="path178"
             style="fill:#f98585;fill-opacity:1;fill-rule:evenodd;stroke:none"
             d="m 0,0 c -0.185,2.907 -0.355,6.59 -0.355,10.672 0,20.754 10.872,24.369 19.359,32.478 5.357,5.113 12.109,7.497 19.735,7.092 H 91.03 c 6.929,0 13.585,-2.55 18.71,-7.126 l 65.629,-52.269 c 1.531,-1.347 2.351,-3.243 2.351,-5.196 0,-0.907 -0.178,-1.821 -0.547,-2.693 -1.161,-2.742 -3.943,-4.419 -6.895,-4.151 L 6.211,-6.412 C 2.856,-6.102 0.212,-3.381 0,0"
             inkscape:connector-curvature="0" /></g><g
           transform="translate(1847.5498,431.558)"
           id="g180"><path
             id="path182"
             style="fill:#f98585;fill-opacity:1;fill-rule:nonzero;stroke:none"
             d="m 0,0 c 2.646,-2.669 6.923,-2.669 9.569,0 1.32,1.331 1.983,3.078 1.983,4.825 0,1.748 -0.663,3.495 -1.983,4.826 l -15.518,15.65 15.518,15.65 c 1.32,1.331 1.983,3.078 1.983,4.825 0,1.748 -0.663,3.495 -1.983,4.827 -2.646,2.668 -6.923,2.668 -9.569,0 L -15.518,34.952 -31.036,50.603 c -2.646,2.668 -6.923,2.668 -9.569,0 -2.646,-2.669 -2.646,-6.983 0,-9.652 l 15.518,-15.65 -15.518,-15.65 c -2.646,-2.669 -2.646,-6.982 0,-9.651 2.646,-2.669 6.923,-2.669 9.569,0 l 15.518,15.65 z m 80.399,0 c 2.646,-2.669 6.924,-2.669 9.57,0 1.32,1.331 1.983,3.078 1.983,4.825 0,1.748 -0.663,3.495 -1.983,4.826 l -15.518,15.65 15.518,15.65 c 1.32,1.331 1.983,3.078 1.983,4.825 0,1.748 -0.663,3.495 -1.983,4.827 -2.646,2.668 -6.924,2.668 -9.57,0 L 64.881,34.952 49.363,50.603 c -2.646,2.668 -6.923,2.668 -9.57,0 -2.646,-2.669 -2.646,-6.983 0,-9.652 L 55.312,25.301 39.793,9.651 c -2.646,-2.669 -2.646,-6.982 0,-9.651 2.647,-2.669 6.924,-2.669 9.57,0 L 64.881,15.65 Z M -76.426,25.301 c 0,26.318 19.7,47.735 43.921,47.735 l 137.992,0.041 c 3.093,0 6.612,-3.802 7.37,-6.825 4.378,-17.315 6.165,-28.774 6.165,-40.951 0,-12.087 -2.362,-21.67 -6.768,-40.951 -0.703,-3.099 -3.613,-6.826 -6.767,-6.826 H -31.727 c -24.647,0 -44.699,21.432 -44.699,47.777"
             inkscape:connector-curvature="0" /></g><g
           transform="translate(1852.4956,357.8969)"
           id="g184"><path
             id="path186"
             style="fill:#f98585;fill-opacity:1;fill-rule:evenodd;stroke:none"
             d="m 0,0 c -1.264,1.919 -1.362,4.33 -0.251,6.333 2.989,5.413 7.683,15.351 11.692,29.457 h 102.306 c 0.853,0 1.677,0.104 2.501,0.194 C 108.991,12.265 98.821,0 98.29,-0.622 96.97,-2.191 94.944,-3.105 92.793,-3.105 H 5.965 C 3.527,-3.099 1.271,-1.926 0,0"
             inkscape:connector-curvature="0" /></g><g
           transform="translate(1864.5044,519.9174)"
           id="g188"><path
             id="path190"
             style="fill:#f98585;fill-opacity:1;fill-rule:evenodd;stroke:none"
             d="m 0,0 c -4.071,13.874 -8.788,23.995 -11.792,29.611 -1.066,2.013 -0.947,4.396 0.33,6.304 1.285,1.909 3.538,3.071 5.966,3.071 h 87.433 c 2.429,0 4.682,-1.162 5.966,-3.064 0.477,-0.708 9.511,-14.355 16.852,-36.026 -0.589,0.045 6.7,0 -1.761,0.137 z"
             inkscape:connector-curvature="0" /></g><g
           transform="translate(1687.1987,372.3305)"
           id="g192"><path
             id="path194"
             style="fill:#f98585;fill-opacity:1;fill-rule:nonzero;stroke:none"
             d="m 0,0 c 0,3.812 -3.046,6.904 -6.815,6.904 -33.827,0 -61.342,27.881 -61.342,62.141 0,3.811 -3.047,6.905 -6.816,6.905 -3.769,0 -6.816,-3.094 -6.816,-6.905 0,-41.876 33.636,-75.949 74.974,-75.949 C -3.046,-6.904 0,-3.812 0,0 m -101.009,-14.313 c -9.719,13.285 -14.858,29.821 -14.858,47.807 v 111.038 c 0,3.349 0.409,6.601 1.206,9.674 3.429,13.208 18.498,56.306 68.9,56.278 l 189.498,-17.192 c 2.106,-0.193 4.001,-1.36 5.139,-3.162 0.498,-0.794 10.326,-16.668 17.428,-45.169 l -40.281,-0.015 c -31.904,0 -57.858,-27.859 -57.858,-62.098 0,-34.261 26.308,-62.141 58.649,-62.141 h 39.633 c -7.109,-29.435 -17.189,-44.597 -17.7,-45.342 -1.172,-1.726 -3.054,-2.817 -5.125,-2.969 L -46.36,-41.427 c -22.779,0 -41.672,9.376 -54.649,27.114"
             inkscape:connector-curvature="0" /></g><g
           transform="translate(3295.6211,650.9545)"
           id="g196"><path
             id="path198"
             style="fill:#f8c18e;fill-opacity:1;fill-rule:evenodd;stroke:none"
             d="m 0,0 c 149.922,0 271.457,-121.535 271.457,-271.456 0,-149.922 -121.535,-271.456 -271.457,-271.456 -149.921,0 -271.456,121.534 -271.456,271.456 C -271.456,-121.535 -149.921,0 0,0"
             inkscape:connector-curvature="0" /></g><g
           transform="translate(3295.6211,640.0966)"
           id="g200"><path
             id="path202"
             style="fill:#262626;fill-opacity:1;fill-rule:nonzero;stroke:none"
             d="m 0,0 c -143.693,0 -260.598,-116.905 -260.598,-260.598 0,-143.694 116.905,-260.598 260.598,-260.598 143.694,0 260.599,116.904 260.599,260.598 C 260.599,-116.905 143.694,0 0,0 m 0,-542.913 c -155.667,0 -282.314,126.648 -282.314,282.315 0,155.67 126.647,282.314 282.314,282.314 155.668,0 282.314,-126.644 282.314,-282.314 0,-155.667 -126.646,-282.315 -282.314,-282.315"
             inkscape:connector-curvature="0" /></g><g
           transform="translate(3297.793,596.6635)"
           id="g204"><path
             id="path206"
             style="fill:#262626;fill-opacity:1;fill-rule:nonzero;stroke:none"
             d="m 0,0 c -120.942,0 -219.337,-98.395 -219.337,-219.337 0,-120.942 98.395,-219.336 219.337,-219.336 120.942,0 219.337,98.394 219.337,219.336 C 219.337,-98.395 120.942,0 0,0 m 0,-451.703 c -128.127,0 -232.366,104.239 -232.366,232.366 0,128.128 104.239,232.367 232.366,232.367 128.128,0 232.367,-104.239 232.367,-232.367 0,-128.127 -104.239,-232.366 -232.367,-232.366"
             inkscape:connector-curvature="0" /></g><path
           id="path208"
           style="fill:#262626;fill-opacity:1;fill-rule:evenodd;stroke:none"
           d="m 3206.584,485.909 h 199.792 v -26.06 h -199.792 z"
           inkscape:connector-curvature="0" /><path
           id="path210"
           style="fill:#262626;fill-opacity:1;fill-rule:evenodd;stroke:none"
           d="m 3206.584,390.357 h 182.419 v -26.061 h -182.419 z"
           inkscape:connector-curvature="0" /><path
           id="path212"
           style="fill:#262626;fill-opacity:1;fill-rule:evenodd;stroke:none"
           d="m 3171.838,329.55 h 256.254 v -26.06 h -256.254 z"
           inkscape:connector-curvature="0" /><path
           id="path214"
           style="fill:#262626;fill-opacity:1;fill-rule:evenodd;stroke:none"
           d="m 3206.584,438.132 h 182.419 v -26.06 h -182.419 z"
           inkscape:connector-curvature="0" /><path
           id="path216"
           style="fill:#262626;fill-opacity:1;fill-rule:evenodd;stroke:none"
           d="m 3206.584,342.58 h 182.419 v -26.061 h -182.419 z"
           inkscape:connector-curvature="0" /><path
           id="path218"
           style="fill:#262626;fill-opacity:1;fill-rule:evenodd;stroke:none"
           d="m 3206.584,438.132 h 26.06 V 342.58 h -26.06 z"
           inkscape:connector-curvature="0" /><path
           id="path220"
           style="fill:#262626;fill-opacity:1;fill-rule:evenodd;stroke:none"
           d="m 3362.942,438.132 h 26.061 V 342.58 h -26.061 z"
           inkscape:connector-curvature="0" /><path
           id="path222"
           style="fill:#262626;fill-opacity:1;fill-rule:evenodd;stroke:none"
           d="m 3284.764,524.998 h 26.06 V 233.997 h -26.06 z"
           inkscape:connector-curvature="0" /><g
           transform="translate(2414.6152,702.2558)"
           id="g224"><path
             id="path226"
             style="fill:#ffffff;fill-opacity:1;fill-rule:evenodd;stroke:none"
             d="m 0,0 478.247,-4.343 v -225.852 h 403.788 l 0.463,-145.043 359.982,3.886 6.298,-232.366 -363.428,-1.354 -705.787,7.868 -1256.217,-7.868 -10.781,248.921 h 546.011 v 150.918 l 538.569,14.128 z"
             inkscape:connector-curvature="0" /></g><g
           transform="translate(1629.9688,337.4184)"
           id="g228"><path
             id="path230"
             style="fill:#89c3e9;fill-opacity:1;fill-rule:evenodd;stroke:none"
             d="M 0,0 295.55,4.344 C 313.313,4.567 327.049,3.119 336.76,0 c 9.71,-3.119 21.556,-9.89 35.538,-20.311 9.128,-11.414 15.764,-26.398 19.907,-44.955 4.144,-18.556 6.872,-45.508 8.186,-80.854 -109.167,0.528 -202.377,0.528 -279.629,0 C 51.367,-119.43 11.113,-70.724 0,0"
             inkscape:connector-curvature="0" /></g><g
           transform="translate(1828.5298,286.0883)"
           id="g232"><path
             id="path234"
             style="fill:#ffffff;fill-opacity:1;fill-rule:nonzero;stroke:none"
             d="m 0,0 c -26.978,0 -54.474,5.594 -83.498,16.796 -56.734,21.899 -122.376,6.693 -159.36,-16.699 l -6.964,11.011 C -210.17,36.192 -139.743,52.467 -78.807,28.952 -25.235,8.279 22.732,7.816 72.14,27.502 122.465,47.547 203.155,26.25 220.732,15.549 L 213.954,4.419 C 200.025,12.906 122.707,33.622 76.962,15.396 51.206,5.136 25.839,0 0,0"
             inkscape:connector-curvature="0" /></g><g
           transform="translate(1832.873,242.6547)"
           id="g236"><path
             id="path238"
             style="fill:#ffffff;fill-opacity:1;fill-rule:nonzero;stroke:none"
             d="m 0,0 c -26.978,0 -54.474,5.595 -83.498,16.797 -56.732,21.894 -122.378,6.692 -159.36,-16.699 l -6.964,11.01 c 39.652,25.08 110.075,41.364 171.015,17.845 C -25.235,8.275 22.732,7.817 72.14,27.502 122.465,47.548 203.155,26.251 220.732,15.55 L 213.955,4.42 C 200.023,12.907 122.711,33.623 76.962,15.396 51.206,5.137 25.839,0 0,0"
             inkscape:connector-curvature="0" /></g><g
           transform="translate(1819.8433,186.1918)"
           id="g240"><path
             id="path242"
             style="fill:#ffffff;fill-opacity:1;fill-rule:nonzero;stroke:none"
             d="m 0,0 c -26.978,0 -54.474,5.595 -83.498,16.797 -56.732,21.894 -122.378,6.692 -159.36,-16.699 l -6.964,11.01 c 39.651,25.08 110.075,41.364 171.015,17.845 C -25.232,8.279 22.73,7.817 72.14,27.502 122.465,47.548 203.155,26.255 220.732,15.55 L 213.954,4.42 C 200.025,12.903 122.707,33.618 76.962,15.396 51.206,5.137 25.839,0 0,0"
             inkscape:connector-curvature="0" /></g><g
           transform="translate(1653.854,244.0375)"
           id="g244"><path
             id="path246"
             style="fill:#a7a8ac;fill-opacity:1;fill-rule:evenodd;stroke:none"
             d="m 0,0 h 230.195 c 11.994,0 21.717,-9.723 21.717,-21.717 v -8.686 c 0,-11.993 -9.723,-21.717 -21.717,-21.717 H 0 c -11.994,0 -21.716,9.724 -21.716,21.717 v 8.686 C -21.716,-9.723 -11.994,0 0,0"
             inkscape:connector-curvature="0" /></g><g
           transform="translate(1653.854,237.5229)"
           id="g248"><path
             id="path250"
             style="fill:#262626;fill-opacity:1;fill-rule:nonzero;stroke:none"
             d="m 0,0 c -8.381,0 -15.201,-6.82 -15.201,-15.202 v -8.687 c 0,-8.381 6.82,-15.201 15.201,-15.201 h 230.195 c 8.381,0 15.201,6.82 15.201,15.201 v 8.687 C 245.396,-6.82 238.576,0 230.195,0 Z M 230.195,-52.12 H 0 c -15.566,0 -28.231,12.665 -28.231,28.231 v 8.687 c 0,15.566 12.665,28.231 28.231,28.231 h 230.195 c 15.566,0 28.232,-12.665 28.232,-28.231 v -8.687 c 0,-15.566 -12.666,-28.231 -28.232,-28.231"
             inkscape:connector-curvature="0" /></g><g
           transform="translate(1688.6006,244.0375)"
           id="g252"><path
             id="path254"
             style="fill:#d1d2d4;fill-opacity:1;fill-rule:evenodd;stroke:none"
             d="m 0,0 h 195.449 c 11.993,0 21.716,-9.723 21.716,-21.717 v -8.686 c 0,-11.993 -9.723,-21.717 -21.716,-21.717 H 0 c -11.994,0 -21.716,9.724 -21.716,21.717 v 8.686 C -21.716,-9.723 -11.994,0 0,0"
             inkscape:connector-curvature="0" /></g><g
           transform="translate(1688.6006,237.5229)"
           id="g256"><path
             id="path258"
             style="fill:#262626;fill-opacity:1;fill-rule:nonzero;stroke:none"
             d="m 0,0 c -8.381,0 -15.202,-6.82 -15.202,-15.202 v -8.687 c 0,-8.381 6.821,-15.201 15.202,-15.201 h 195.449 c 8.381,0 15.201,6.82 15.201,15.201 v 8.687 C 210.65,-6.82 203.83,0 195.449,0 Z M 195.449,-52.12 H 0 c -15.566,0 -28.231,12.665 -28.231,28.231 v 8.687 c 0,15.566 12.665,28.231 28.231,28.231 h 195.449 c 15.566,0 28.231,-12.665 28.231,-28.231 v -8.687 c 0,-15.566 -12.665,-28.231 -28.231,-28.231"
             inkscape:connector-curvature="0" /></g><g
           transform="translate(1708.1455,224.4926)"
           id="g260"><path
             id="path262"
             style="fill:#ffffff;fill-opacity:1;fill-rule:evenodd;stroke:none"
             d="m 0,0 c 4.797,0 8.687,-3.889 8.687,-8.687 0,-4.797 -3.89,-8.686 -8.687,-8.686 -4.797,0 -8.687,3.889 -8.687,8.686 C -8.687,-3.889 -4.797,0 0,0"
             inkscape:connector-curvature="0" /></g><g
           transform="translate(1708.1455,220.1498)"
           id="g264"><path
             id="path266"
             style="fill:#262626;fill-opacity:1;fill-rule:nonzero;stroke:none"
             d="m 0,0 c -2.395,0 -4.343,-1.947 -4.343,-4.344 0,-2.396 1.948,-4.343 4.343,-4.343 2.394,0 4.343,1.947 4.343,4.343 C 4.343,-1.947 2.394,0 0,0 m 0,-17.374 c -7.185,0 -13.03,5.846 -13.03,13.03 0,7.186 5.845,13.031 13.03,13.031 7.185,0 13.03,-5.845 13.03,-13.031 0,-7.184 -5.845,-13.03 -13.03,-13.03"
             inkscape:connector-curvature="0" /></g><g
           transform="translate(1786.3247,224.4926)"
           id="g268"><path
             id="path270"
             style="fill:#ffffff;fill-opacity:1;fill-rule:evenodd;stroke:none"
             d="m 0,0 c 4.798,0 8.687,-3.889 8.687,-8.687 0,-4.797 -3.889,-8.686 -8.687,-8.686 -4.797,0 -8.687,3.889 -8.687,8.686 C -8.687,-3.889 -4.797,0 0,0"
             inkscape:connector-curvature="0" /></g><g
           transform="translate(1786.3247,220.1498)"
           id="g272"><path
             id="path274"
             style="fill:#262626;fill-opacity:1;fill-rule:nonzero;stroke:none"
             d="m 0,0 c -2.394,0 -4.343,-1.947 -4.343,-4.344 0,-2.396 1.949,-4.343 4.343,-4.343 2.395,0 4.343,1.947 4.343,4.343 C 4.343,-1.947 2.395,0 0,0 m 0,-17.374 c -7.185,0 -13.03,5.846 -13.03,13.03 0,7.186 5.845,13.031 13.03,13.031 7.185,0 13.03,-5.845 13.03,-13.031 0,-7.184 -5.845,-13.03 -13.03,-13.03"
             inkscape:connector-curvature="0" /></g><g
           transform="translate(1860.1611,224.4926)"
           id="g276"><path
             id="path278"
             style="fill:#ffffff;fill-opacity:1;fill-rule:evenodd;stroke:none"
             d="m 0,0 c 4.797,0 8.687,-3.889 8.687,-8.687 0,-4.797 -3.89,-8.686 -8.687,-8.686 -4.798,0 -8.687,3.889 -8.687,8.686 C -8.687,-3.889 -4.798,0 0,0"
             inkscape:connector-curvature="0" /></g><g
           transform="translate(1860.1611,220.1498)"
           id="g280"><path
             id="path282"
             style="fill:#262626;fill-opacity:1;fill-rule:nonzero;stroke:none"
             d="m 0,0 c -2.395,0 -4.343,-1.947 -4.343,-4.344 0,-2.396 1.948,-4.343 4.343,-4.343 2.394,0 4.343,1.947 4.343,4.343 C 4.343,-1.947 2.394,0 0,0 m 0,-17.374 c -7.185,0 -13.03,5.846 -13.03,13.03 0,7.186 5.845,13.031 13.03,13.031 7.185,0 13.03,-5.845 13.03,-13.031 0,-7.184 -5.845,-13.03 -13.03,-13.03"
             inkscape:connector-curvature="0" /></g><g
           transform="translate(1699.459,307.015)"
           id="g284"><path
             id="path286"
             style="fill:#262626;fill-opacity:1;fill-rule:evenodd;stroke:none"
             d="m 0,0 3.528,-79.112 h 8.636 L 14.914,0 Z"
             inkscape:connector-curvature="0" /></g><g
           transform="translate(1814.0767,298.3285)"
           id="g288"><path
             id="path290"
             style="fill:#262626;fill-opacity:1;fill-rule:evenodd;stroke:none"
             d="m 0,0 -26.365,-74.674 8.007,-3.234 32.186,72.321 z"
             inkscape:connector-curvature="0" /></g><g
           transform="translate(1935.6104,263.5824)"
           id="g292"><path
             id="path294"
             style="fill:#262626;fill-opacity:1;fill-rule:evenodd;stroke:none"
             d="m 0,0 -69.56,-37.853 3.786,-7.76 72.312,32.208 z"
             inkscape:connector-curvature="0" /></g><path
           id="path296"
           style="fill:#61b94c;fill-opacity:1;fill-rule:evenodd;stroke:none"
           d="m 2120.759,428.627 h 56.463 V 311.358 h -56.463 z"
           inkscape:connector-curvature="0" /><path
           id="path298"
           style="fill:#ffdd02;fill-opacity:1;fill-rule:evenodd;stroke:none"
           d="m 2120.759,298.329 h 56.463 v -56.463 h -56.463 z"
           inkscape:connector-curvature="0" /><path
           id="path300"
           style="fill:#e84a85;fill-opacity:1;fill-rule:evenodd;stroke:none"
           d="m 2190.252,432.971 h 56.463 v -60.807 h -56.463 z"
           inkscape:connector-curvature="0" /><path
           id="path302"
           style="fill:#ffdd02;fill-opacity:1;fill-rule:evenodd;stroke:none"
           d="m 2259.745,428.627 h 56.463 v -47.776 h -56.463 z"
           inkscape:connector-curvature="0" /><path
           id="path304"
           style="fill:#61b94c;fill-opacity:1;fill-rule:evenodd;stroke:none"
           d="m 2259.745,367.822 h 56.463 v -56.463 h -56.463 z"
           inkscape:connector-curvature="0" /><path
           id="path306"
           style="fill:#61b94c;fill-opacity:1;fill-rule:evenodd;stroke:none"
           d="m 2329.237,437.314 h 56.463 v -65.149 h -56.463 z"
           inkscape:connector-curvature="0" /><path
           id="path308"
           style="fill:#ffdd02;fill-opacity:1;fill-rule:evenodd;stroke:none"
           d="m 2398.73,428.627 h 56.463 V 311.358 h -56.463 z"
           inkscape:connector-curvature="0" /><path
           id="path310"
           style="fill:#61b94c;fill-opacity:1;fill-rule:evenodd;stroke:none"
           d="m 2468.223,428.627 h 56.463 V 311.358 h -56.463 z"
           inkscape:connector-curvature="0" /><path
           id="path312"
           style="fill:#026cb8;fill-opacity:1;fill-rule:evenodd;stroke:none"
           d="m 2190.252,359.135 h 56.463 v -117.27 h -56.463 z"
           inkscape:connector-curvature="0" /><path
           id="path314"
           style="fill:#ffdd02;fill-opacity:1;fill-rule:evenodd;stroke:none"
           d="m 2259.745,298.329 h 56.463 v -56.463 h -56.463 z"
           inkscape:connector-curvature="0" /><path
           id="path316"
           style="fill:#e84a85;fill-opacity:1;fill-rule:evenodd;stroke:none"
           d="m 2329.237,359.135 h 56.463 v -117.27 h -56.463 z"
           inkscape:connector-curvature="0" /><path
           id="path318"
           style="fill:#026cb8;fill-opacity:1;fill-rule:evenodd;stroke:none"
           d="m 2398.73,298.329 h 56.463 v -56.463 h -56.463 z"
           inkscape:connector-curvature="0" /><path
           id="path320"
           style="fill:#e84a85;fill-opacity:1;fill-rule:evenodd;stroke:none"
           d="m 2468.223,298.329 h 56.463 v -56.463 h -56.463 z"
           inkscape:connector-curvature="0" /><path
           id="path322"
           style="fill:#ffdd02;fill-opacity:1;fill-rule:evenodd;stroke:none"
           d="m 2537.716,320.045 h 56.463 v -78.18 h -56.463 z"
           inkscape:connector-curvature="0" /><g
           transform="translate(2537.7158,228.8363)"
           id="g324"><path
             id="path326"
             style="fill:#026cb8;fill-opacity:1;fill-rule:evenodd;stroke:none"
             d="M 0,0 H 56.463 V -56.463 C 25.279,-56.463 0,-31.184 0,0"
             inkscape:connector-curvature="0" /></g><path
           id="path328"
           style="fill:#026cb8;fill-opacity:1;fill-rule:evenodd;stroke:none"
           d="m 2676.701,320.045 h 56.463 v -78.18 h -56.463 z"
           inkscape:connector-curvature="0" /><path
           id="path330"
           style="fill:#61b94c;fill-opacity:1;fill-rule:evenodd;stroke:none"
           d="m 2815.687,320.045 h 56.463 v -78.18 h -56.463 z"
           inkscape:connector-curvature="0" /><path
           id="path332"
           style="fill:#e84a85;fill-opacity:1;fill-rule:evenodd;stroke:none"
           d="m 2885.18,320.045 h 56.463 v -78.18 h -56.463 z"
           inkscape:connector-curvature="0" /><path
           id="path334"
           style="fill:#e84a85;fill-opacity:1;fill-rule:evenodd;stroke:none"
           d="m 2607.209,311.359 h 56.463 V 172.374 h -56.463 z"
           inkscape:connector-curvature="0" /><path
           id="path336"
           style="fill:#61b94c;fill-opacity:1;fill-rule:evenodd;stroke:none"
           d="m 2676.701,228.836 h 56.463 v -56.463 h -56.463 z"
           inkscape:connector-curvature="0" /><path
           id="path338"
           style="fill:#ffdd02;fill-opacity:1;fill-rule:evenodd;stroke:none"
           d="m 2746.194,320.045 h 56.463 V 172.373 h -56.463 z"
           inkscape:connector-curvature="0" /><path
           id="path340"
           style="fill:#026cb8;fill-opacity:1;fill-rule:evenodd;stroke:none"
           d="m 2815.687,228.836 h 56.463 v -56.463 h -56.463 z"
           inkscape:connector-curvature="0" /><path
           id="path342"
           style="fill:#ffdd02;fill-opacity:1;fill-rule:evenodd;stroke:none"
           d="m 2885.18,228.836 h 56.463 v -56.463 h -56.463 z"
           inkscape:connector-curvature="0" /><g
           transform="translate(2539.8809,430.7787)"
           id="g344"><path
             id="path346"
             style="fill:#d4d2d3;fill-opacity:1;fill-rule:evenodd;stroke:none"
             d="m 0,0 36.925,-119.42 -43.434,8.687 z"
             inkscape:connector-curvature="0" /></g><g
           transform="translate(2936.6719,122.8959)"
           id="g348"><path
             id="path350"
             style="fill:#262626;fill-opacity:1;fill-rule:nonzero;stroke:none"
             d="M 0,0 C -0.899,0 -1.808,0.063 -2.693,0.187 L 0.25,21.699 c -1.535,0.188 -2.422,-0.954 -2.422,-2.154 v 166.746 h -395.754 c -10.777,0 -19.545,8.768 -19.545,19.545 v 95.642 H -811.054 V 135.193 h -21.717 v 168.456 c 0,10.778 8.768,19.545 19.545,19.545 h 397.927 c 10.778,0 19.545,-8.767 19.545,-19.545 V 208.008 H 0 c 10.777,0 19.545,-8.768 19.545,-19.545 V 19.545 C 19.545,8.768 10.777,0 0,0"
             inkscape:connector-curvature="0" /></g><g
           transform="translate(2116.4155,270.0971)"
           id="g352"><path
             id="path354"
             style="fill:#ffffff;fill-opacity:1;fill-rule:evenodd;stroke:none"
             d="m 0,0 c 13.193,0 23.888,-10.695 23.888,-23.888 0,-13.193 -10.695,-23.888 -23.888,-23.888 -13.193,0 -23.888,10.695 -23.888,23.888 C -23.888,-10.695 -13.193,0 0,0"
             inkscape:connector-curvature="0" /></g><g
           transform="translate(2116.4155,263.5824)"
           id="g356"><path
             id="path358"
             style="fill:#262626;fill-opacity:1;fill-rule:nonzero;stroke:none"
             d="m 0,0 c -9.579,0 -17.373,-7.792 -17.373,-17.373 0,-9.582 7.794,-17.373 17.373,-17.373 9.58,0 17.374,7.791 17.374,17.373 C 17.374,-7.792 9.58,0 0,0 m 0,-47.776 c -16.765,0 -30.403,13.64 -30.403,30.403 0,16.763 13.638,30.403 30.403,30.403 16.765,0 30.403,-13.64 30.403,-30.403 0,-16.763 -13.638,-30.403 -30.403,-30.403"
             inkscape:connector-curvature="0" /></g><g
           transform="translate(2945.9863,152.8285)"
           id="g360"><path
             id="path362"
             style="fill:#ffffff;fill-opacity:1;fill-rule:evenodd;stroke:none"
             d="m 0,0 c 13.192,0 23.888,-10.695 23.888,-23.889 0,-13.193 -10.696,-23.887 -23.888,-23.887 -13.193,0 -23.889,10.694 -23.889,23.887 C -23.889,-10.695 -13.193,0 0,0"
             inkscape:connector-curvature="0" /></g><g
           transform="translate(2945.9863,146.3129)"
           id="g364"><path
             id="path366"
             style="fill:#262626;fill-opacity:1;fill-rule:nonzero;stroke:none"
             d="m 0,0 c -9.582,0 -17.374,-7.791 -17.374,-17.373 0,-9.581 7.792,-17.373 17.374,-17.373 9.581,0 17.373,7.792 17.373,17.373 C 17.373,-7.791 9.581,0 0,0 m 0,-47.775 c -16.763,0 -30.403,13.64 -30.403,30.402 0,16.763 13.64,30.403 30.403,30.403 16.762,0 30.402,-13.64 30.402,-30.403 0,-16.762 -13.64,-30.402 -30.402,-30.402"
             inkscape:connector-curvature="0" /></g><g
           transform="translate(2652.1289,766.0395)"
           id="g368"><path
             id="path370"
             style="fill:#d4d2d3;fill-opacity:1;fill-rule:evenodd;stroke:none"
             d="M 0,0 42.357,-355.64 H 0 Z"
             inkscape:connector-curvature="0" /></g><g
           transform="translate(3307.5107,208.1244)"
           id="g372"><path
             id="path374"
             style="fill:#262626;fill-opacity:1;fill-rule:nonzero;stroke:none"
             d="m 0,0 h -21.717 v 255.288 h -384.649 c -10.778,0 -19.545,8.768 -19.545,19.545 V 478.93 h -240.141 v 21.717 h 242.313 c 10.777,0 19.545,-8.768 19.545,-19.545 V 277.005 H -19.545 C -8.768,277.005 0,268.237 0,257.46 Z"
             inkscape:connector-curvature="0" /></g><g
           transform="translate(2295.3838,699.6708)"
           id="g376"><path
             id="path378"
             style="fill:#d4d2d3;fill-opacity:1;fill-rule:evenodd;stroke:none"
             d="M 0,0 V 35.322 L 90.316,66.369 V -32.709 H 119.09 V -97.546 H 33.854 V -6.673 L 24.39,0 Z"
             inkscape:connector-curvature="0" /></g><g
           transform="translate(2335.7524,608.6396)"
           id="g380"><path
             id="path382"
             style="fill:#262626;fill-opacity:1;fill-rule:nonzero;stroke:none"
             d="M 0,0 H 72.208 V 51.808 H 43.433 V 148.27 L -33.854,121.704 V 97.546 h 19.939 L 0,87.737 Z M 85.237,-13.03 H -13.03 v 94.011 l -5.015,3.535 h -28.839 v 46.485 L 56.462,166.528 V 64.837 h 28.775 z"
             inkscape:connector-curvature="0" /></g><g
           transform="translate(2414.6143,589.0942)"
           id="g384"><path
             id="path386"
             style="fill:#262626;fill-opacity:1;fill-rule:nonzero;stroke:none"
             d="m 0,0 h -82.387 c -7.185,0 -13.03,5.845 -13.03,13.03 v 87.102 h -70.968 c -7.185,0 -13.031,5.845 -13.031,13.03 v 55.097 h -82.372 V 13.03 C -261.788,5.845 -267.632,0 -274.817,0 h -105.904 v 17.374 h 101.56 v 155.228 c 0,7.185 5.845,13.03 13.03,13.03 h 91.059 c 7.185,0 13.03,-5.845 13.03,-13.03 v -55.097 h 70.969 c 7.185,0 13.03,-5.845 13.03,-13.03 V 17.374 H 0 Z"
             inkscape:connector-curvature="0" /></g><g
           transform="translate(1884.0493,352.6625)"
           id="g388"><path
             id="path390"
             style="fill:#262626;fill-opacity:1;fill-rule:nonzero;stroke:none"
             d="m 0,0 h -21.717 v 141.437 c 0,10.778 8.767,19.545 19.545,19.545 h 521.703 v 298.487 c 0,10.778 8.767,19.545 19.545,19.545 H 757.01 c 10.779,0 19.545,-8.767 19.545,-19.545 V 65.166 H 911.766 V 43.45 H 774.384 c -10.778,0 -19.545,8.767 -19.545,19.545 V 457.298 H 541.248 V 158.811 c 0,-10.778 -8.768,-19.545 -19.545,-19.545 L 0,139.266 Z"
             inkscape:connector-curvature="0" /></g><path
           id="path392"
           style="fill:#262626;fill-opacity:1;fill-rule:evenodd;stroke:none"
           d="m 2238.028,671.852 h 65.15 v -8.687 h -65.15 z"
           inkscape:connector-curvature="0" /><path
           id="path394"
           style="fill:#262626;fill-opacity:1;fill-rule:evenodd;stroke:none"
           d="m 2238.028,650.136 h 65.15 v -8.687 h -65.15 z"
           inkscape:connector-curvature="0" /><path
           id="path396"
           style="fill:#262626;fill-opacity:1;fill-rule:evenodd;stroke:none"
           d="m 2238.028,628.419 h 65.15 v -8.687 h -65.15 z"
           inkscape:connector-curvature="0" /><path
           id="path398"
           style="fill:#262626;fill-opacity:1;fill-rule:evenodd;stroke:none"
           d="m 2238.028,606.703 h 65.15 v -8.687 h -65.15 z"
           inkscape:connector-curvature="0" /><path
           id="path400"
           style="fill:#262626;fill-opacity:1;fill-rule:nonzero;stroke:none"
           d="m 2466.051,522.009 h 8.688 v 243.225 h -8.688 z m 9.772,-10.858 h -10.857 c -5.39,0 -9.773,4.384 -9.773,9.772 v 245.396 c 0,5.389 4.383,9.773 9.773,9.773 h 10.857 c 5.387,0 9.773,-4.384 9.773,-9.773 V 520.923 c 0,-5.388 -4.386,-9.772 -9.773,-9.772"
           inkscape:connector-curvature="0" /><path
           id="path402"
           style="fill:#262626;fill-opacity:1;fill-rule:nonzero;stroke:none"
           d="m 2526.857,482.919 h 8.687 v 282.314 h -8.687 z m 9.773,-10.858 h -10.859 c -5.386,0 -9.772,4.384 -9.772,9.772 v 284.486 c 0,5.389 4.386,9.773 9.772,9.773 h 10.859 c 5.387,0 9.772,-4.384 9.772,-9.773 V 481.833 c 0,-5.388 -4.385,-9.772 -9.772,-9.772"
           inkscape:connector-curvature="0" /><path
           id="path404"
           style="fill:#262626;fill-opacity:1;fill-rule:nonzero;stroke:none"
           d="m 2587.664,430.799 h 8.687 v 334.435 h -8.687 z m 9.773,-10.858 h -10.859 c -5.387,0 -9.772,4.386 -9.772,9.772 v 336.606 c 0,5.389 4.385,9.773 9.772,9.773 h 10.859 c 5.386,0 9.772,-4.384 9.772,-9.773 V 429.713 c 0,-5.386 -4.386,-9.772 -9.772,-9.772"
           inkscape:connector-curvature="0" /><path
           id="path406"
           style="fill:#262626;fill-opacity:1;fill-rule:nonzero;stroke:none"
           d="m 2765.739,522.009 h 52.119 v 8.687 h -52.119 z m 53.205,-10.858 h -54.291 c -5.386,0 -9.772,4.384 -9.772,9.772 v 10.859 c 0,5.388 4.386,9.772 9.772,9.772 h 54.291 c 5.387,0 9.773,-4.384 9.773,-9.772 v -10.859 c 0,-5.388 -4.386,-9.772 -9.773,-9.772"
           inkscape:connector-curvature="0" /><path
           id="path408"
           style="fill:#262626;fill-opacity:1;fill-rule:nonzero;stroke:none"
           d="m 2791.799,543.725 h 52.119 v 8.687 h -52.119 z m 53.205,-10.858 h -54.291 c -5.387,0 -9.773,4.383 -9.773,9.772 v 10.858 c 0,5.389 4.386,9.773 9.773,9.773 h 54.291 c 5.387,0 9.772,-4.384 9.772,-9.773 v -10.858 c 0,-5.389 -4.385,-9.772 -9.772,-9.772"
           inkscape:connector-curvature="0" /><g
           transform="translate(3297.8076,320.0453)"
           id="g410"><path
             id="path412"
             style="fill:#262626;fill-opacity:1;fill-rule:nonzero;stroke:none"
             d="m 0,0 -0.036,21.717 1136.293,2.68 0.036,-21.716 z"
             inkscape:connector-curvature="0" /></g><g
           transform="translate(2037.333,195.9008)"
           id="g414"><path
             id="path416"
             style="fill:#262626;fill-opacity:1;fill-rule:nonzero;stroke:none"
             d="m 0,0 h -20.927 v 60.662 c 0,29.356 -37.781,74.341 -84.335,74.341 H -1668.938 V 156.72 H -105.262 C -48.573,156.72 0,103.899 0,60.662 Z"
             inkscape:connector-curvature="0" /></g><g
           transform="translate(4179.4834,356.9633)"
           id="g418"><path
             id="path420"
             style="fill:#ffffff;fill-opacity:1;fill-rule:evenodd;stroke:none"
             d="m 0,0 c 13.192,0 23.888,-10.695 23.888,-23.888 0,-13.193 -10.696,-23.888 -23.888,-23.888 -13.193,0 -23.889,10.695 -23.889,23.888 C -23.889,-10.695 -13.193,0 0,0"
             inkscape:connector-curvature="0" /></g><g
           transform="translate(4179.4834,350.4486)"
           id="g422"><path
             id="path424"
             style="fill:#262626;fill-opacity:1;fill-rule:nonzero;stroke:none"
             d="m 0,0 c -9.582,0 -17.374,-7.792 -17.374,-17.373 0,-9.582 7.792,-17.373 17.374,-17.373 9.581,0 17.373,7.791 17.373,17.373 C 17.373,-7.792 9.581,0 0,0 m 0,-47.776 c -16.763,0 -30.403,13.64 -30.403,30.403 0,16.762 13.64,30.402 30.403,30.402 16.762,0 30.402,-13.64 30.402,-30.402 0,-16.763 -13.64,-30.403 -30.402,-30.403"
             inkscape:connector-curvature="0" /></g><g
           transform="translate(3297.793,235.351)"
           id="g426"><path
             id="path428"
             style="fill:#ffffff;fill-opacity:1;fill-rule:evenodd;stroke:none"
             d="m 0,0 c 13.193,0 23.889,-10.695 23.889,-23.889 0,-13.192 -10.696,-23.887 -23.889,-23.887 -13.192,0 -23.888,10.695 -23.888,23.887 C -23.888,-10.695 -13.192,0 0,0"
             inkscape:connector-curvature="0" /></g><g
           transform="translate(3297.793,228.8363)"
           id="g430"><path
             id="path432"
             style="fill:#262626;fill-opacity:1;fill-rule:nonzero;stroke:none"
             d="m 0,0 c -9.581,0 -17.373,-7.792 -17.373,-17.373 0,-9.582 7.792,-17.374 17.373,-17.374 9.582,0 17.373,7.792 17.373,17.374 C 17.373,-7.792 9.582,0 0,0 m 0,-47.776 c -16.763,0 -30.403,13.64 -30.403,30.403 0,16.762 13.64,30.402 30.403,30.402 16.763,0 30.403,-13.64 30.403,-30.402 0,-16.763 -13.64,-30.403 -30.403,-30.403"
             inkscape:connector-curvature="0" /></g><g
           transform="translate(2961.1875,995.4282)"
           id="g434"><path
             id="path436"
             style="fill:#ffffff;fill-opacity:1;fill-rule:evenodd;stroke:none"
             d="m 0,0 c 16.791,0 30.403,-13.612 30.403,-30.403 0,-16.791 -13.612,-30.403 -30.403,-30.403 -16.791,0 -30.403,13.612 -30.403,30.403 C -30.403,-13.612 -16.791,0 0,0"
             inkscape:connector-curvature="0" /></g><g
           transform="translate(2961.1875,988.9135)"
           id="g438"><path
             id="path440"
             style="fill:#262626;fill-opacity:1;fill-rule:nonzero;stroke:none"
             d="m 0,0 c -13.17,0 -23.889,-10.716 -23.889,-23.888 0,-13.172 10.719,-23.888 23.889,-23.888 13.17,0 23.888,10.716 23.888,23.888 C 23.888,-10.716 13.17,0 0,0 m 0,-60.806 c -20.355,0 -36.918,16.561 -36.918,36.918 0,20.357 16.563,36.918 36.918,36.918 20.354,0 36.918,-16.561 36.918,-36.918 0,-20.357 -16.564,-36.918 -36.918,-36.918"
             inkscape:connector-curvature="0" /></g><g
           transform="translate(2961.1875,973.7119)"
           id="g442"><path
             id="path444"
             style="fill:#a9abaf;fill-opacity:1;fill-rule:evenodd;stroke:none"
             d="m 0,0 c 4.798,0 8.687,-3.889 8.687,-8.687 0,-4.797 -3.889,-8.686 -8.687,-8.686 -4.798,0 -8.687,3.889 -8.687,8.686 C -8.687,-3.889 -4.798,0 0,0"
             inkscape:connector-curvature="0" /></g><g
           transform="translate(2961.1875,971.5405)"
           id="g446"><path
             id="path448"
             style="fill:#262626;fill-opacity:1;fill-rule:nonzero;stroke:none"
             d="m 0,0 c -3.593,0 -6.515,-2.922 -6.515,-6.515 0,-3.592 2.922,-6.515 6.515,-6.515 3.593,0 6.515,2.923 6.515,6.515 C 6.515,-2.922 3.593,0 0,0 m 0,-17.374 c -5.989,0 -10.858,4.872 -10.858,10.859 0,5.987 4.869,10.858 10.858,10.858 5.989,0 10.858,-4.871 10.858,-10.858 0,-5.987 -4.869,-10.859 -10.858,-10.859"
             inkscape:connector-curvature="0" /></g><g
           transform="translate(3134.9189,1028.0028)"
           id="g450"><path
             id="path452"
             style="fill:#ffffff;fill-opacity:1;fill-rule:evenodd;stroke:none"
             d="m 0,0 c 13.193,0 23.889,-10.695 23.889,-23.888 0,-13.193 -10.696,-23.888 -23.889,-23.888 -13.192,0 -23.888,10.695 -23.888,23.888 C -23.888,-10.695 -13.192,0 0,0"
             inkscape:connector-curvature="0" /></g><g
           transform="translate(3134.9189,1023.6601)"
           id="g454"><path
             id="path456"
             style="fill:#262626;fill-opacity:1;fill-rule:nonzero;stroke:none"
             d="m 0,0 c -10.777,0 -19.544,-8.767 -19.544,-19.545 0,-10.778 8.767,-19.545 19.544,-19.545 10.778,0 19.545,8.767 19.545,19.545 C 19.545,-8.767 10.778,0 0,0 m 0,-47.776 c -15.565,0 -28.231,12.665 -28.231,28.231 0,15.566 12.666,28.231 28.231,28.231 15.566,0 28.231,-12.665 28.231,-28.231 0,-15.566 -12.665,-28.231 -28.231,-28.231"
             inkscape:connector-curvature="0" /></g><g
           transform="translate(3134.9189,1012.8017)"
           id="g458"><path
             id="path460"
             style="fill:#a9abaf;fill-opacity:1;fill-rule:evenodd;stroke:none"
             d="m 0,0 c 4.798,0 8.688,-3.889 8.688,-8.687 0,-4.797 -3.89,-8.687 -8.688,-8.687 -4.797,0 -8.687,3.89 -8.687,8.687 C -8.687,-3.889 -4.797,0 0,0"
             inkscape:connector-curvature="0" /></g><g
           transform="translate(3134.9189,1010.6298)"
           id="g462"><path
             id="path464"
             style="fill:#262626;fill-opacity:1;fill-rule:nonzero;stroke:none"
             d="m 0,0 c -3.592,0 -6.515,-2.922 -6.515,-6.515 0,-3.592 2.923,-6.515 6.515,-6.515 3.593,0 6.516,2.923 6.516,6.515 C 6.516,-2.922 3.593,0 0,0 m 0,-17.373 c -5.988,0 -10.857,4.872 -10.857,10.858 0,5.987 4.869,10.859 10.857,10.859 5.989,0 10.858,-4.872 10.858,-10.859 0,-5.986 -4.869,-10.858 -10.858,-10.858"
             inkscape:connector-curvature="0" /></g><g
           transform="translate(3567.0781,763.062)"
           id="g466"><path
             id="path468"
             style="fill:#ffffff;fill-opacity:1;fill-rule:evenodd;stroke:none"
             d="m 0,0 c 9.595,0 17.373,-7.778 17.373,-17.374 0,-9.594 -7.778,-17.373 -17.373,-17.373 -9.596,0 -17.374,7.779 -17.374,17.373 C -17.374,-7.778 -9.596,0 0,0"
             inkscape:connector-curvature="0" /></g><g
           transform="translate(3567.0781,758.7187)"
           id="g470"><path
             id="path472"
             style="fill:#262626;fill-opacity:1;fill-rule:nonzero;stroke:none"
             d="m 0,0 c -7.186,0 -13.03,-5.845 -13.03,-13.03 0,-7.185 5.844,-13.03 13.03,-13.03 7.185,0 13.029,5.845 13.029,13.03 C 13.029,-5.845 7.185,0 0,0 m 0,-34.747 c -11.975,0 -21.717,9.743 -21.717,21.717 0,11.974 9.742,21.717 21.717,21.717 11.974,0 21.716,-9.743 21.716,-21.717 0,-11.974 -9.742,-21.717 -21.716,-21.717"
             inkscape:connector-curvature="0" /></g><g
           transform="translate(3032.8516,571.9565)"
           id="g474"><path
             id="path476"
             style="fill:#ffffff;fill-opacity:1;fill-rule:evenodd;stroke:none"
             d="m 0,0 c 9.596,0 17.373,-7.778 17.373,-17.373 0,-9.595 -7.777,-17.373 -17.373,-17.373 -9.595,0 -17.373,7.778 -17.373,17.373 C -17.373,-7.778 -9.595,0 0,0"
             inkscape:connector-curvature="0" /></g><g
           transform="translate(3032.8516,567.6137)"
           id="g478"><path
             id="path480"
             style="fill:#262626;fill-opacity:1;fill-rule:nonzero;stroke:none"
             d="m 0,0 c -7.185,0 -13.029,-5.845 -13.029,-13.03 0,-7.185 5.844,-13.03 13.029,-13.03 7.186,0 13.03,5.845 13.03,13.03 C 13.03,-5.845 7.186,0 0,0 m 0,-34.747 c -11.974,0 -21.716,9.743 -21.716,21.717 0,11.973 9.742,21.717 21.716,21.717 11.974,0 21.717,-9.744 21.717,-21.717 0,-11.974 -9.743,-21.717 -21.717,-21.717"
             inkscape:connector-curvature="0" /></g><g
           transform="translate(2980.7324,730.4872)"
           id="g482"><path
             id="path484"
             style="fill:#ffffff;fill-opacity:1;fill-rule:evenodd;stroke:none"
             d="m 0,0 c 5.997,0 10.858,-4.862 10.858,-10.858 0,-5.997 -4.861,-10.859 -10.858,-10.859 -5.997,0 -10.858,4.862 -10.858,10.859 C -10.858,-4.862 -5.997,0 0,0"
             inkscape:connector-curvature="0" /></g><g
           transform="translate(2980.7324,728.3154)"
           id="g486"><path
             id="path488"
             style="fill:#262626;fill-opacity:1;fill-rule:nonzero;stroke:none"
             d="m 0,0 c -4.789,0 -8.687,-3.896 -8.687,-8.687 0,-4.79 3.898,-8.686 8.687,-8.686 4.788,0 8.687,3.896 8.687,8.686 C 8.687,-3.896 4.788,0 0,0 m 0,-21.716 c -7.186,0 -13.03,5.844 -13.03,13.029 0,7.186 5.844,13.03 13.03,13.03 7.185,0 13.029,-5.844 13.029,-13.03 0,-7.185 -5.844,-13.029 -13.029,-13.029"
             inkscape:connector-curvature="0" /></g><g
           transform="translate(2980.7324,700.0839)"
           id="g490"><path
             id="path492"
             style="fill:#ffffff;fill-opacity:1;fill-rule:evenodd;stroke:none"
             d="m 0,0 c 5.997,0 10.858,-4.861 10.858,-10.858 0,-5.997 -4.861,-10.858 -10.858,-10.858 -5.997,0 -10.858,4.861 -10.858,10.858 C -10.858,-4.861 -5.997,0 0,0"
             inkscape:connector-curvature="0" /></g><g
           transform="translate(2980.7324,697.9125)"
           id="g494"><path
             id="path496"
             style="fill:#262626;fill-opacity:1;fill-rule:nonzero;stroke:none"
             d="m 0,0 c -4.789,0 -8.687,-3.896 -8.687,-8.687 0,-4.791 3.898,-8.686 8.687,-8.686 4.788,0 8.687,3.895 8.687,8.686 C 8.687,-3.896 4.788,0 0,0 m 0,-21.717 c -7.186,0 -13.03,5.845 -13.03,13.03 0,7.186 5.844,13.03 13.03,13.03 7.185,0 13.029,-5.844 13.029,-13.03 0,-7.185 -5.844,-13.03 -13.029,-13.03"
             inkscape:connector-curvature="0" /></g><g
           transform="translate(2980.7324,669.6811)"
           id="g498"><path
             id="path500"
             style="fill:#ffffff;fill-opacity:1;fill-rule:evenodd;stroke:none"
             d="m 0,0 c 5.997,0 10.858,-4.862 10.858,-10.858 0,-5.997 -4.861,-10.859 -10.858,-10.859 -5.997,0 -10.858,4.862 -10.858,10.859 C -10.858,-4.862 -5.997,0 0,0"
             inkscape:connector-curvature="0" /></g><g
           transform="translate(2980.7324,667.5092)"
           id="g502"><path
             id="path504"
             style="fill:#262626;fill-opacity:1;fill-rule:nonzero;stroke:none"
             d="m 0,0 c -4.789,0 -8.687,-3.896 -8.687,-8.687 0,-4.79 3.898,-8.686 8.687,-8.686 4.788,0 8.687,3.896 8.687,8.686 C 8.687,-3.896 4.788,0 0,0 m 0,-21.716 c -7.186,0 -13.03,5.844 -13.03,13.029 0,7.186 5.844,13.03 13.03,13.03 7.185,0 13.029,-5.844 13.029,-13.03 0,-7.185 -5.844,-13.029 -13.029,-13.029"
             inkscape:connector-curvature="0" /></g><g
           transform="translate(2950.3291,669.6811)"
           id="g506"><path
             id="path508"
             style="fill:#ffffff;fill-opacity:1;fill-rule:evenodd;stroke:none"
             d="m 0,0 c 5.997,0 10.858,-4.862 10.858,-10.858 0,-5.997 -4.861,-10.859 -10.858,-10.859 -5.997,0 -10.858,4.862 -10.858,10.859 C -10.858,-4.862 -5.997,0 0,0"
             inkscape:connector-curvature="0" /></g><g
           transform="translate(2950.3291,667.5092)"
           id="g510"><path
             id="path512"
             style="fill:#262626;fill-opacity:1;fill-rule:nonzero;stroke:none"
             d="m 0,0 c -4.788,0 -8.687,-3.896 -8.687,-8.687 0,-4.79 3.899,-8.686 8.687,-8.686 4.789,0 8.687,3.896 8.687,8.686 C 8.687,-3.896 4.789,0 0,0 m 0,-21.716 c -7.185,0 -13.03,5.844 -13.03,13.029 0,7.186 5.845,13.03 13.03,13.03 7.186,0 13.03,-5.844 13.03,-13.03 0,-7.185 -5.844,-13.029 -13.03,-13.029"
             inkscape:connector-curvature="0" /></g><g
           transform="translate(1495.3237,365.6498)"
           id="g514"><path
             id="path516"
             style="fill:#ffffff;fill-opacity:1;fill-rule:evenodd;stroke:none"
             d="m 0,0 c 13.193,0 23.888,-10.695 23.888,-23.888 0,-13.193 -10.695,-23.888 -23.888,-23.888 -13.193,0 -23.888,10.695 -23.888,23.888 C -23.888,-10.695 -13.193,0 0,0"
             inkscape:connector-curvature="0" /></g><g
           transform="translate(1495.3237,359.1352)"
           id="g518"><path
             id="path520"
             style="fill:#262626;fill-opacity:1;fill-rule:nonzero;stroke:none"
             d="m 0,0 c -9.58,0 -17.373,-7.792 -17.373,-17.373 0,-9.582 7.793,-17.373 17.373,-17.373 9.58,0 17.373,7.791 17.373,17.373 C 17.373,-7.792 9.58,0 0,0 m 0,-47.776 c -16.765,0 -30.403,13.64 -30.403,30.403 0,16.762 13.638,30.403 30.403,30.403 16.765,0 30.403,-13.641 30.403,-30.403 0,-16.763 -13.638,-30.403 -30.403,-30.403"
             inkscape:connector-curvature="0" /></g><g
           transform="translate(368.394,365.6498)"
           id="g522"><path
             id="path524"
             style="fill:#ffffff;fill-opacity:1;fill-rule:evenodd;stroke:none"
             d="m 0,0 c 13.193,0 23.888,-10.695 23.888,-23.888 0,-13.193 -10.695,-23.888 -23.888,-23.888 -13.193,0 -23.888,10.695 -23.888,23.888 C -23.888,-10.695 -13.193,0 0,0"
             inkscape:connector-curvature="0" /></g><g
           transform="translate(368.3945,359.1352)"
           id="g526"><path
             id="path528"
             style="fill:#262626;fill-opacity:1;fill-rule:nonzero;stroke:none"
             d="m 0,0 c -9.58,0 -17.374,-7.792 -17.374,-17.373 0,-9.582 7.794,-17.373 17.374,-17.373 9.579,0 17.373,7.791 17.373,17.373 C 17.373,-7.792 9.579,0 0,0 m 0,-47.776 c -16.765,0 -30.403,13.64 -30.403,30.403 0,16.762 13.638,30.403 30.403,30.403 16.765,0 30.403,-13.641 30.403,-30.403 0,-16.763 -13.638,-30.403 -30.403,-30.403"
             inkscape:connector-curvature="0" /></g><g
           transform="translate(2024.6709,213.6342)"
           id="g530"><path
             id="path532"
             style="fill:#ffffff;fill-opacity:1;fill-rule:evenodd;stroke:none"
             d="m 0,0 c 13.193,0 23.888,-10.695 23.888,-23.888 0,-13.193 -10.695,-23.888 -23.888,-23.888 -13.193,0 -23.888,10.695 -23.888,23.888 C -23.888,-10.695 -13.193,0 0,0"
             inkscape:connector-curvature="0" /></g><g
           transform="translate(2024.6719,207.1195)"
           id="g534"><path
             id="path536"
             style="fill:#262626;fill-opacity:1;fill-rule:nonzero;stroke:none"
             d="m 0,0 c -9.58,0 -17.373,-7.792 -17.373,-17.373 0,-9.582 7.793,-17.373 17.373,-17.373 9.58,0 17.373,7.791 17.373,17.373 C 17.373,-7.792 9.58,0 0,0 m 0,-47.776 c -16.765,0 -30.403,13.64 -30.403,30.403 0,16.763 13.638,30.403 30.403,30.403 16.765,0 30.403,-13.64 30.403,-30.403 0,-16.763 -13.638,-30.403 -30.403,-30.403"
             inkscape:connector-curvature="0" /></g><path
           id="path538"
           style="fill:#262626;fill-opacity:1;fill-rule:nonzero;stroke:none"
           d="m 3936.258,324.389 h -21.716 v 84.694 h 21.716 z"
           inkscape:connector-curvature="0" /><path
           id="path540"
           style="fill:#262626;fill-opacity:1;fill-rule:nonzero;stroke:none"
           d="m 3575.765,697.913 h -17.373 v 34.746 h 17.373 z"
           inkscape:connector-curvature="0" /><g
           transform="translate(2414.6152,909.746)"
           id="g542"><path
             id="path544"
             style="fill:#89c3e9;fill-opacity:1;fill-rule:evenodd;stroke:none"
             d="m 0,0 v -40.062 c 0,-4.797 3.89,-8.687 8.687,-8.687 H 110.07 c 4.798,0 8.687,3.89 8.687,8.687 v 153.056 c 0,4.797 -3.889,8.686 -8.687,8.686 H 83.673 c -2.911,0 -5.629,-1.458 -7.238,-3.883 L 1.449,4.803 C 0.504,3.38 0,1.709 0,0"
             inkscape:connector-curvature="0" /></g><g
           transform="translate(2425.4727,871.8564)"
           id="g546"><path
             id="path548"
             style="fill:#262626;fill-opacity:1;fill-rule:nonzero;stroke:none"
             d="M 0,0 H 97.042 V 148.711 H 73.98 L 0,37.232 Z M 99.213,-21.716 H -2.172 c -10.777,0 -19.545,8.767 -19.545,19.545 V 37.89 c 0,3.86 1.131,7.598 3.267,10.813 L 56.531,161.69 c 3.622,5.47 9.713,8.738 16.283,8.738 h 26.399 c 10.778,0 19.545,-8.767 19.545,-19.545 V -2.171 c 0,-10.778 -8.767,-19.545 -19.545,-19.545"
             inkscape:connector-curvature="0" /></g><g
           transform="translate(2652.1289,909.746)"
           id="g550"><path
             id="path552"
             style="fill:#b8d686;fill-opacity:1;fill-rule:evenodd;stroke:none"
             d="m 0,0 v -40.062 c 0,-4.797 -3.889,-8.687 -8.687,-8.687 h -110.07 V 121.68 h 35.085 c 2.911,0 5.628,-1.458 7.238,-3.883 L -1.448,4.803 C -0.504,3.38 0,1.709 0,0"
             inkscape:connector-curvature="0" /></g><g
           transform="translate(2544.2305,871.8564)"
           id="g554"><path
             id="path556"
             style="fill:#262626;fill-opacity:1;fill-rule:nonzero;stroke:none"
             d="M 0,0 H 97.042 V 37.232 L 23.062,148.711 H 0 Z M 99.213,-21.716 H -21.716 v 192.144 h 45.944 c 6.57,0 12.661,-3.268 16.287,-8.744 L 115.496,48.697 c 2.134,-3.209 3.262,-6.947 3.262,-10.807 V -2.171 c 0,-10.778 -8.767,-19.545 -19.545,-19.545"
             inkscape:connector-curvature="0" /></g><g
           transform="translate(2650.4922,773.3178)"
           id="g558"><path
             id="path560"
             style="fill:#d4d2d3;fill-opacity:1;fill-rule:evenodd;stroke:none"
             d="m 0,0 c 29.055,16.182 56.612,53.871 82.672,113.068 24.792,56.317 33.599,115.918 26.42,178.802 -0.544,4.766 2.879,9.071 7.645,9.615 0.327,0.038 0.657,0.056 0.986,0.056 h 211.85 c 2.399,0 4.344,-1.944 4.344,-4.343 0,-1.26 -0.548,-2.458 -1.5,-3.283 C 285.004,252.849 241.271,199.156 201.22,132.835 158.639,62.328 142.287,-7.085 152.165,-75.405 83.959,-75.247 33.237,-75.247 0,-75.405 Z"
             inkscape:connector-curvature="0" /></g><g
           transform="translate(2975.7998,1075.4403)"
           id="g562"><path
             id="path564"
             style="fill:#262626;fill-opacity:1;fill-rule:nonzero;stroke:none"
             d="m 0,0 c -0.005,-0.002 -0.009,-0.006 -0.009,-0.009 0,0.003 0.004,0.007 0.009,0.009 m -262.278,-366.551 c 22.319,0 47.975,-0.03 76.873,-0.091 -6.6,66.619 10.871,134.831 52.022,202.969 36.85,61.018 77.369,112.147 120.62,152.234 h -192.394 c 6.862,-63.661 -2.397,-124.877 -27.541,-181.991 -25.669,-58.314 -52.471,-95.979 -81.75,-114.832 v -58.363 c 14.598,0.049 32.023,0.074 52.17,0.074 m -73.887,-21.888 v 92.698 l 5.573,3.105 c 26.807,14.928 53.053,51.25 78.019,107.956 23.887,54.268 32.494,112.538 25.572,173.194 -1.222,10.708 6.493,20.412 17.194,21.638 0.764,0.085 1.494,0.125 2.223,0.125 H 4.267 c 8.38,0 15.201,-6.82 15.201,-15.201 0,-4.418 -1.917,-8.609 -5.259,-11.497 -46.322,-40.125 -89.73,-93.447 -129.006,-158.48 -41.049,-67.972 -57.065,-135.622 -47.598,-201.073 l 1.798,-12.442 -12.571,0.03 c -67.868,0.159 -119.034,0.159 -152.088,0 z"
             inkscape:connector-curvature="0" /></g><g
           transform="translate(2772.2539,851.2289)"
           id="g566"><path
             id="path568"
             style="fill:#a9abaf;fill-opacity:1;fill-rule:evenodd;stroke:none"
             d="m 0,0 c 25.308,56.827 43.517,127.405 54.625,211.735 0.569,4.322 4.253,7.552 8.612,7.552 h 129.427 c 4.798,0 8.687,-3.889 8.687,-8.686 0,-2.129 -0.782,-4.184 -2.197,-5.774 C 152.987,152.934 113.089,102.166 79.458,52.525 42.71,-1.718 26.357,-70.332 30.403,-153.316 c -50.734,0.156 -92.718,0.156 -125.956,0 C -81.866,-127.821 -39.09,-87.772 0,0"
             inkscape:connector-curvature="0" /></g><g
           transform="translate(2733.1553,703.4584)"
           id="g570"><path
             id="path572"
             style="fill:#262626;fill-opacity:1;fill-rule:nonzero;stroke:none"
             d="m 0,0 c 19.456,0 40.774,-0.032 63.831,-0.1 -3.059,81.284 13.827,149.71 50.228,203.44 33.605,49.6 74.022,101.032 120.14,152.867 0.53,0.597 0.823,1.366 0.823,2.164 0,1.796 -1.463,3.257 -3.257,3.257 h -129.43 c -1.629,0 -3.016,-1.217 -3.228,-2.831 C 87.982,274.342 69.464,202.6 44.057,145.56 16.903,84.592 -12.423,45.891 -31.828,20.283 -37.74,12.48 -42.817,5.779 -46.749,-0.077 -32.646,-0.026 -17.033,0 0,0 m -65.552,-11.018 4.314,8.04 c 4.47,8.324 11.655,17.811 20.758,29.818 19.103,25.212 47.975,63.313 74.621,123.137 v 0.002 c 24.977,56.083 43.212,126.817 54.202,210.235 0.92,6.996 6.934,12.272 13.992,12.272 h 129.43 c 7.783,0 14.116,-6.332 14.116,-14.115 0,-3.461 -1.269,-6.793 -3.568,-9.38 C 196.51,297.509 156.385,246.457 123.051,197.249 87.146,144.255 70.957,76.114 74.923,-5.281 l 0.279,-5.711 -5.718,0.017 c -50.482,0.157 -92.845,0.157 -125.913,0 z"
             inkscape:connector-curvature="0" /></g><g
           transform="translate(2975.7998,1075.4403)"
           id="g574"><path
             id="path576"
             style="fill:#262626;fill-opacity:1;fill-rule:nonzero;stroke:none"
             d="m 0,0 c -0.005,-0.002 -0.009,-0.006 -0.009,-0.009 0,0.003 0.004,0.007 0.009,0.009 m -262.278,-366.551 c 22.319,0 47.975,-0.03 76.873,-0.091 -6.6,66.619 10.871,134.831 52.022,202.969 36.85,61.018 77.369,112.147 120.62,152.234 h -192.394 c 6.862,-63.661 -2.397,-124.877 -27.541,-181.991 -25.669,-58.314 -52.471,-95.979 -81.75,-114.832 v -58.363 c 14.598,0.049 32.023,0.074 52.17,0.074 m -73.887,-21.888 v 92.698 l 5.573,3.105 c 26.807,14.928 53.053,51.25 78.019,107.956 23.887,54.268 32.494,112.538 25.572,173.194 -1.222,10.708 6.493,20.412 17.194,21.638 0.764,0.085 1.494,0.125 2.223,0.125 H 4.267 c 8.38,0 15.201,-6.82 15.201,-15.201 0,-4.418 -1.917,-8.609 -5.259,-11.497 -46.322,-40.125 -89.73,-93.447 -129.006,-158.48 -41.049,-67.972 -57.065,-135.622 -47.598,-201.073 l 1.798,-12.442 -12.571,0.03 c -67.868,0.159 -119.034,0.159 -152.088,0 z"
             inkscape:connector-curvature="0" /></g><g
           transform="translate(2793.9707,423.1986)"
           id="g578"><path
             id="path580"
             style="fill:#ffffff;fill-opacity:1;fill-rule:evenodd;stroke:none"
             d="m 0,0 c 8.995,0 16.287,-7.292 16.287,-16.287 0,-8.996 -7.292,-16.288 -16.287,-16.288 -8.995,0 -16.288,7.292 -16.288,16.288 C -16.288,-7.292 -8.995,0 0,0"
             inkscape:connector-curvature="0" /></g><g
           transform="translate(2793.9707,417.7699)"
           id="g582"><path
             id="path584"
             style="fill:#262626;fill-opacity:1;fill-rule:nonzero;stroke:none"
             d="m 0,0 c -5.989,0 -10.858,-4.869 -10.858,-10.858 0,-5.99 4.869,-10.859 10.858,-10.859 5.988,0 10.858,4.869 10.858,10.859 C 10.858,-4.869 5.988,0 0,0 m 0,-32.575 c -11.974,0 -21.717,9.743 -21.717,21.717 0,11.973 9.743,21.716 21.717,21.716 11.974,0 21.716,-9.743 21.716,-21.716 0,-11.974 -9.742,-21.717 -21.716,-21.717"
             inkscape:connector-curvature="0" /></g><g
           transform="translate(2029.5498,614.3036)"
           id="g586"><path
             id="path588"
             style="fill:#ffffff;fill-opacity:1;fill-rule:evenodd;stroke:none"
             d="m 0,0 c 8.995,0 16.287,-7.292 16.287,-16.287 0,-8.996 -7.292,-16.288 -16.287,-16.288 -8.996,0 -16.288,7.292 -16.288,16.288 C -16.288,-7.292 -8.996,0 0,0"
             inkscape:connector-curvature="0" /></g><g
           transform="translate(2029.5498,608.8749)"
           id="g590"><path
             id="path592"
             style="fill:#262626;fill-opacity:1;fill-rule:nonzero;stroke:none"
             d="m 0,0 c -5.987,0 -10.858,-4.872 -10.858,-10.858 0,-5.987 4.871,-10.858 10.858,-10.858 5.987,0 10.858,4.871 10.858,10.858 C 10.858,-4.872 5.987,0 0,0 m 0,-32.575 c -11.974,0 -21.717,9.742 -21.717,21.717 0,11.973 9.743,21.716 21.717,21.716 11.974,0 21.716,-9.743 21.716,-21.716 0,-11.975 -9.742,-21.717 -21.716,-21.717"
             inkscape:connector-curvature="0" /></g><g
           transform="translate(2198.9385,857.5287)"
           id="g594"><path
             id="path596"
             style="fill:#ffffff;fill-opacity:1;fill-rule:evenodd;stroke:none"
             d="m 0,0 c 8.995,0 16.287,-7.292 16.287,-16.288 0,-8.995 -7.292,-16.287 -16.287,-16.287 -8.996,0 -16.288,7.292 -16.288,16.287 C -16.288,-7.292 -8.996,0 0,0"
             inkscape:connector-curvature="0" /></g><g
           transform="translate(2198.9385,852.0995)"
           id="g598"><path
             id="path600"
             style="fill:#262626;fill-opacity:1;fill-rule:nonzero;stroke:none"
             d="m 0,0 c -5.987,0 -10.858,-4.871 -10.858,-10.858 0,-5.987 4.871,-10.858 10.858,-10.858 5.987,0 10.858,4.871 10.858,10.858 C 10.858,-4.871 5.987,0 0,0 m 0,-32.575 c -11.974,0 -21.717,9.743 -21.717,21.717 0,11.974 9.743,21.716 21.717,21.716 11.974,0 21.716,-9.742 21.716,-21.716 0,-11.974 -9.742,-21.717 -21.716,-21.717"
             inkscape:connector-curvature="0" /></g><path
           id="path602"
           style="fill:#262626;fill-opacity:1;fill-rule:evenodd;stroke:none"
           d="m 2194.595,828.211 h 8.687 v -65.149 h -8.687 z"
           inkscape:connector-curvature="0" /><g
           transform="translate(3245.6738,799.7758)"
           id="g604"><path
             id="path606"
             style="fill:#262626;fill-opacity:1;fill-rule:evenodd;stroke:none"
             d="M 0,0 -8.687,42.656 11.404,46.009 14.463,3.666 Z"
             inkscape:connector-curvature="0" /></g><g
           transform="translate(3286.4873,783.7392)"
           id="g608"><path
             id="path610"
             style="fill:#262626;fill-opacity:1;fill-rule:evenodd;stroke:none"
             d="M 0,0 -40.813,14.855 -36.471,31.651 4.86,9.726 Z"
             inkscape:connector-curvature="0" /></g><g
           transform="translate(3310.5791,852.9096)"
           id="g612"><path
             id="path614"
             style="fill:#262626;fill-opacity:1;fill-rule:evenodd;stroke:none"
             d="M 0,0 -40.5,15.962 -47.29,-3.242 -6.122,-13.607 Z"
             inkscape:connector-curvature="0" /></g><g
           transform="translate(3317.8047,810.4682)"
           id="g616"><path
             id="path618"
             style="fill:#262626;fill-opacity:1;fill-rule:evenodd;stroke:none"
             d="m 0,0 -7.542,42.773 -17.296,-1.36 14.416,-44.511 z"
             inkscape:connector-curvature="0" /></g><g
           transform="translate(3645.2568,365.6498)"
           id="g620"><path
             id="path622"
             style="fill:#f8c18e;fill-opacity:1;fill-rule:evenodd;stroke:none"
             d="m 0,0 h 112.926 c 8.395,0 15.202,-6.806 15.202,-15.201 0,-8.396 -6.807,-15.202 -15.202,-15.202 H 0 c -8.396,0 -15.201,6.806 -15.201,15.202 C -15.201,-6.806 -8.396,0 0,0"
             inkscape:connector-curvature="0" /></g><g
           transform="translate(3645.2568,359.1352)"
           id="g624"><path
             id="path626"
             style="fill:#262626;fill-opacity:1;fill-rule:nonzero;stroke:none"
             d="m 0,0 c -4.788,0 -8.687,-3.898 -8.687,-8.687 0,-4.789 3.899,-8.686 8.687,-8.686 h 112.926 c 4.789,0 8.686,3.897 8.686,8.686 0,4.789 -3.897,8.687 -8.686,8.687 z M 112.926,-30.403 H 0 c -11.974,0 -21.716,9.743 -21.716,21.716 0,11.974 9.742,21.717 21.716,21.717 h 112.926 c 11.973,0 21.717,-9.743 21.717,-21.717 0,-11.973 -9.744,-21.716 -21.717,-21.716"
             inkscape:connector-curvature="0" /></g><path
           id="path628"
           style="fill:#ffffff;fill-opacity:1;fill-rule:evenodd;stroke:none"
           d="m 3647.429,400.396 h 108.583 v -30.402 h -108.583 z"
           inkscape:connector-curvature="0" /><path
           id="path630"
           style="fill:#262626;fill-opacity:1;fill-rule:nonzero;stroke:none"
           d="m 3653.943,376.508 h 95.553 v 17.373 h -95.553 z m 108.583,-13.03 h -121.612 v 43.434 h 121.612 z"
           inkscape:connector-curvature="0" /><g
           transform="translate(3890.6533,565.4418)"
           id="g632"><path
             id="path634"
             style="fill:#67ae8f;fill-opacity:1;fill-rule:evenodd;stroke:none"
             d="m 0,0 h 65.149 c 21.589,0 39.09,-17.501 39.09,-39.09 v -82.522 c 0,-21.589 -17.501,-39.09 -39.09,-39.09 H 0 c -21.589,0 -39.09,17.501 -39.09,39.09 V -39.09 C -39.09,-17.501 -21.589,0 0,0"
             inkscape:connector-curvature="0" /></g><g
           transform="translate(3890.6533,558.9272)"
           id="g636"><path
             id="path638"
             style="fill:#262626;fill-opacity:1;fill-rule:nonzero;stroke:none"
             d="m 0,0 c -17.963,0 -32.574,-14.612 -32.574,-32.575 v -82.523 c 0,-17.963 14.611,-32.575 32.574,-32.575 h 65.149 c 17.963,0 32.576,14.612 32.576,32.575 v 82.523 C 97.725,-14.612 83.112,0 65.149,0 Z M 65.149,-160.702 H 0 c -25.147,0 -45.604,20.456 -45.604,45.604 v 82.523 c 0,25.145 20.457,45.604 45.604,45.604 h 65.149 c 25.149,0 45.606,-20.459 45.606,-45.604 v -82.523 c 0,-25.148 -20.457,-45.604 -45.606,-45.604"
             inkscape:connector-curvature="0" /></g><g
           transform="translate(3680.0039,435.143)"
           id="g640"><path
             id="path642"
             style="fill:#f8c18e;fill-opacity:1;fill-rule:evenodd;stroke:none"
             d="m 0,0 h 39.089 c 8.396,0 15.202,-6.807 15.202,-15.202 0,-8.396 -6.806,-15.201 -15.202,-15.201 H 0 c -8.396,0 -15.202,6.805 -15.202,15.201 C -15.202,-6.807 -8.396,0 0,0"
             inkscape:connector-curvature="0" /></g><g
           transform="translate(3680.0039,428.6283)"
           id="g644"><path
             id="path646"
             style="fill:#262626;fill-opacity:1;fill-rule:nonzero;stroke:none"
             d="m 0,0 c -4.789,0 -8.687,-3.898 -8.687,-8.688 0,-4.788 3.898,-8.686 8.687,-8.686 h 39.089 c 4.789,0 8.687,3.898 8.687,8.686 0,4.79 -3.898,8.688 -8.687,8.688 z M 39.089,-30.403 H 0 c -11.975,0 -21.717,9.742 -21.717,21.715 0,11.975 9.742,21.717 21.717,21.717 h 39.089 c 11.974,0 21.717,-9.742 21.717,-21.717 0,-11.973 -9.743,-21.715 -21.717,-21.715"
             inkscape:connector-curvature="0" /></g><g
           transform="translate(3949.7373,500.7641)"
           id="g648"><path
             id="path650"
             style="fill:#ffffff;fill-opacity:1;fill-rule:nonzero;stroke:none"
             d="M 0,0 2.395,-6.354 17.994,-6.373 -0.049,36.446 -51.79,36.426 -69.942,-6.35 l 15.828,-0.033 1.954,6.92 13.806,-35.286 h 25.191 z"
             inkscape:connector-curvature="0" /></g><g
           transform="translate(3923.874,489.434)"
           id="g652"><path
             id="path654"
             style="fill:#262626;fill-opacity:1;fill-rule:nonzero;stroke:none"
             d="m 0,0 c 5.153,0 9.332,-2.656 9.332,-5.933 0,-3.277 -4.179,-5.933 -9.332,-5.933 -5.154,0 -9.332,2.656 -9.332,5.933 C -9.332,-2.656 -5.154,0 0,0"
             inkscape:connector-curvature="0" /></g><g
           transform="translate(3908.1885,516.4467)"
           id="g656"><path
             id="path658"
             style="fill:#262626;fill-opacity:1;fill-rule:nonzero;stroke:none"
             d="m 0,0 c 2.398,0 4.343,-1.944 4.343,-4.344 0,-2.398 -1.945,-4.343 -4.343,-4.343 -2.399,0 -4.344,1.945 -4.344,4.343 C -4.344,-1.944 -2.399,0 0,0"
             inkscape:connector-curvature="0" /></g><g
           transform="translate(3938.5918,516.4467)"
           id="g660"><path
             id="path662"
             style="fill:#262626;fill-opacity:1;fill-rule:nonzero;stroke:none"
             d="m 0,0 c 2.398,0 4.343,-1.944 4.343,-4.344 0,-2.398 -1.945,-4.343 -4.343,-4.343 -2.399,0 -4.344,1.945 -4.344,4.343 C -4.344,-1.944 -2.399,0 0,0"
             inkscape:connector-curvature="0" /></g><g
           id="g664"><g
             id="g666" /><g
             id="g690"><g
               id="g688"
               clip-path="url(#clipPath670)"><g
                 id="g686"><g
                   id="g676" /><g
                   id="g684"><g
                     id="g682"
                     clip-path="url(#clipPath674)"><text
   id="text680"
   style="font-variant:normal;font-weight:bold;font-stretch:normal;font-size:30.40309906px;font-family:LucidaGrande;-inkscape-font-specification:LucidaGrande-Bold;writing-mode:lr-tb;fill:#ffffff;fill-opacity:1;fill-rule:nonzero;stroke:none"
   transform="matrix(1,0,0,-1,3875.4517,427.8818)"><tspan
     id="tspan678"
     y="0"
     x="0 24.109659 43.537239 63.603287 73.697113">DogID</tspan></text>


</g></g></g></g></g></g><g
           transform="translate(3093.2852,657.5356)"
           id="g692"><path
             id="path694"
             style="fill:#979797;fill-opacity:1;fill-rule:nonzero;stroke:none"
             d="m 0,0 -6.77,25.156 -1.594,9.145 -1.917,-5.4 -9.204,-9.978 -7.092,11.961 -5.073,-19.714 -10.757,18.768 -2.574,12.649 -2.609,-12.65 -5.488,-13.328 -5.654,15.196 -3.148,-7.595 -10.493,-6.088 -2.181,3.758 9.222,5.35 6.811,16.447 5.663,-15.208 1.136,2.738 4.624,22.637 4.254,-0.003 4.623,-22.685 5.01,-8.632 5.03,19.571 9.458,-15.94 4.921,5.334 3.979,12.631 4.207,-0.282 3.079,-17.747 2.655,-9.836 3.466,11.442 7.537,8.837 8.652,-8.074 h 8.899 V 24.117 H 18.06 l -6.582,6.144 -4.281,-5.022 z"
             inkscape:connector-curvature="0" /></g><g
           transform="translate(1910.1514,809.6655)"
           id="g696"><path
             id="path698"
             style="fill:#262626;fill-opacity:1;fill-rule:nonzero;stroke:none"
             d="M 0,0 C -0.042,3.605 2.823,6.56 6.428,6.56 10.033,6.602 12.987,3.737 12.987,0.131 13.03,-3.474 10.12,-6.428 6.56,-6.47 H 6.515 C 2.91,-6.47 0,-3.561 0,0 m 1.043,-26.492 c -0.305,3.56 2.388,6.731 5.949,6.992 3.605,0.303 6.734,-2.39 7.037,-5.994 0.261,-3.563 -2.388,-6.689 -5.993,-6.994 H 7.514 c -3.345,0 -6.21,2.564 -6.471,5.996 m 3.69,-26.669 c -0.737,3.518 1.521,6.992 5.039,7.73 3.519,0.738 6.95,-1.518 7.688,-5.036 0.738,-3.519 -1.521,-6.995 -5.039,-7.733 -0.432,-0.087 -0.912,-0.129 -1.344,-0.129 -2.999,0 -5.735,2.127 -6.344,5.168 m 8.123,-26.104 c -1.434,3.302 0.044,7.123 3.344,8.599 3.302,1.434 7.124,-0.042 8.6,-3.344 1.433,-3.3 -0.042,-7.121 -3.344,-8.6 -0.868,-0.39 -1.737,-0.564 -2.607,-0.564 -2.517,0 -4.907,1.478 -5.993,3.909 m 15.072,-23.628 h -0.044 c -2.388,2.651 -2.215,6.776 0.479,9.209 2.649,2.388 6.774,2.216 9.206,-0.477 2.39,-2.652 2.216,-6.776 -0.477,-9.209 -1.26,-1.128 -2.823,-1.65 -4.386,-1.65 -1.739,0 -3.518,0.694 -4.778,2.127 m 22.629,-16.981 v 0 c -3.258,1.563 -4.605,5.472 -2.997,8.687 1.563,3.258 5.471,4.602 8.687,2.997 3.257,-1.565 4.604,-5.474 2.996,-8.687 -1.13,-2.345 -3.431,-3.692 -5.864,-3.692 -0.956,0 -1.911,0.216 -2.822,0.695 m 26.711,-7.993 c -3.561,0.522 -5.994,3.824 -5.472,7.385 0.519,3.561 3.822,5.993 7.382,5.516 3.563,-0.522 5.993,-3.822 5.474,-7.385 -0.435,-3.257 -3.257,-5.603 -6.428,-5.603 -0.306,0 -0.609,0.045 -0.956,0.087 m 20.414,5.256 c 0,3.605 2.909,6.515 6.515,6.515 3.603,0 6.515,-2.91 6.515,-6.515 0,-3.603 -2.912,-6.515 -6.515,-6.515 -3.606,0 -6.515,2.912 -6.515,6.515 m 26.06,0 c 0,3.605 2.909,6.515 6.514,6.515 3.604,0 6.515,-2.91 6.515,-6.515 0,-3.603 -2.911,-6.515 -6.515,-6.515 -3.605,0 -6.514,2.912 -6.514,6.515 m 26.059,0 c 0,3.605 2.91,6.515 6.515,6.515 3.603,0 6.515,-2.91 6.515,-6.515 0,-3.603 -2.912,-6.515 -6.515,-6.515 -3.605,0 -6.515,2.912 -6.515,6.515 m 26.06,0 c 0,3.605 2.91,6.515 6.515,6.515 3.603,0 6.515,-2.91 6.515,-6.515 0,-3.603 -2.912,-6.515 -6.515,-6.515 -3.605,0 -6.515,2.912 -6.515,6.515 m 26.06,0 c 0,3.605 2.91,6.515 6.515,6.515 3.603,0 6.515,-2.91 6.515,-6.515 0,-3.603 -2.912,-6.515 -6.515,-6.515 -3.605,0 -6.515,2.912 -6.515,6.515 m 26.06,0 c 0,3.605 2.91,6.515 6.515,6.515 3.603,0 6.515,-2.91 6.515,-6.515 0,-3.603 -2.912,-6.515 -6.515,-6.515 -3.605,0 -6.515,2.912 -6.515,6.515"
             inkscape:connector-curvature="0" /></g><g
           transform="translate(1843.856,829.9296)"
           id="g700"><path
             id="path702"
             style="fill:#d8d8d8;fill-opacity:1;fill-rule:evenodd;stroke:none"
             d="m 0,0 18.587,-22.886 55.195,47.883 c 5.946,5.158 6.646,14.618 1.436,21.032 -5.107,6.288 -13.885,7.179 -19.704,2.131 z"
             inkscape:connector-curvature="0" /></g><g
           transform="translate(1852.8887,829.1406)"
           id="g704"><path
             id="path706"
             style="fill:#262626;fill-opacity:1;fill-rule:nonzero;stroke:none"
             d="M 0,0 10.369,-12.765 60.48,30.708 c 3.306,2.868 3.603,8.365 0.649,12.001 -1.406,1.731 -3.304,2.781 -5.347,2.959 -1.836,0.159 -3.626,-0.422 -5.032,-1.642 z M 8.74,-31.428 -18.064,1.578 42.211,53.869 c 4.096,3.554 9.33,5.238 14.706,4.78 5.588,-0.49 10.676,-3.232 14.326,-7.724 7.393,-9.1 6.394,-22.586 -2.225,-30.061 z"
             inkscape:connector-curvature="0" /></g><g
           transform="translate(1839.1499,830.8686)"
           id="g708"><path
             id="path710"
             style="fill:#a9abaf;fill-opacity:1;fill-rule:evenodd;stroke:none"
             d="M 0,0 23.192,-28.176 43.555,-10.558 20.364,17.619 Z"
             inkscape:connector-curvature="0" /></g><g
           transform="translate(1848.2212,830.101)"
           id="g712"><path
             id="path714"
             style="fill:#262626;fill-opacity:1;fill-rule:nonzero;stroke:none"
             d="M 0,0 14.907,-18.113 25.413,-9.021 10.506,9.092 Z M 13.333,-36.704 -18.141,1.536 12.08,27.682 43.554,-10.557 Z"
             inkscape:connector-curvature="0" /></g><g
           transform="translate(1892.4805,816.9106)"
           id="g716"><path
             id="path718"
             style="fill:#262626;fill-opacity:1;fill-rule:evenodd;stroke:none"
             d="M 0,0 36.853,32.391 45.242,21.932 8.39,-10.459 Z"
             inkscape:connector-curvature="0" /></g><g
           id="g720"><g
             id="g722" /><g
             id="g734"><g
               style="opacity:0.25"
               id="g732"
               clip-path="url(#clipPath726)"><g
                 id="g730"
                 transform="translate(2898.21,710.9423)"><path
                   id="path728"
                   style="fill:#343434;fill-opacity:1;fill-rule:evenodd;stroke:none"
                   d="M 0,0 42.356,-229.684 H 0 Z"
                   inkscape:connector-curvature="0" /></g></g></g></g><g
           id="g736"><g
             id="g738" /><g
             id="g750"><g
               style="opacity:0.25"
               id="g748"
               clip-path="url(#clipPath742)"><g
                 id="g746"
                 transform="translate(3305.8799,506.807)"><path
                   id="path744"
                   style="fill:#343434;fill-opacity:1;fill-rule:evenodd;stroke:none"
                   d="M 0,0 29.327,-173.222 H 0 Z"
                   inkscape:connector-curvature="0" /></g></g></g></g><g
           id="g752"><g
             id="g754" /><g
             id="g778"><g
               id="g776"
               clip-path="url(#clipPath758)"><g
                 id="g774"><g
                   id="g764" /><g
                   id="g772"><g
                     id="g770"
                     clip-path="url(#clipPath762)">
</g></g></g></g></g></g><g
           id="g780"><g
             id="g782" /><g
             id="g806"><g
               id="g804"
               clip-path="url(#clipPath786)"><g
                 id="g802"><g
                   id="g792" /><g
                   id="g800"><g
                     id="g798"
                     clip-path="url(#clipPath790)">
</g></g></g></g></g></g></g></g></g></svg>